<svg width="48" height="48" viewBox="0 0 48 48" fill="none" xmlns="http://www.w3.org/2000/svg">
<path opacity="0.5" d="M16.3378 23.998L0.581915 11.9555C0.581915 11.9555 0.24707 11.719 0.24707 11.273L0.247069 1.10964C0.247069 1.10964 0.250368 0.163263 1.24501 0.270496C1.24501 0.270496 1.45119 0.323259 1.5881 0.42709L19.0198 13.7513C19.0198 13.7513 21.0454 15.2372 21.0306 17.85C21.0306 17.85 21.0619 20.3879 19.0198 21.9487L16.3378 23.998Z" fill="url(#paint0_linear_37_8072)"/>
<path opacity="0.5" d="M16.3378 24.0062L0.581915 36.047C0.581915 36.047 0.24707 36.2836 0.24707 36.7295L0.24707 46.8946C0.24707 46.8946 0.250369 47.841 1.24501 47.7337C1.24501 47.7337 1.45119 47.681 1.5881 47.5771L19.0198 34.2546C19.0198 34.2546 21.0454 32.7687 21.0306 30.1559C21.0306 30.1559 21.0619 27.6181 19.0198 26.0572L16.3378 24.0079L16.3378 24.0062Z" fill="url(#paint1_linear_37_8072)"/>
<path d="M0.593812 0.120895C0.227627 0.311535 -2.06793e-06 0.689404 -2.04955e-06 1.10983L-1.60529e-06 11.2732C-1.59012e-06 11.6204 0.163297 11.954 0.435462 12.1617L12.1682 21.1302L12.2342 21.1812L12.5295 20.771L0.73072 11.7515C0.583916 11.6391 0.494844 11.4604 0.494844 11.2732L0.494843 1.10983C0.494843 0.880043 0.615255 0.680893 0.816493 0.577064C1.02268 0.46983 1.2569 0.490257 1.44165 0.631531L18.8734 13.9557C20.0874 14.8834 20.7851 16.3029 20.7851 17.8502C20.7851 19.3974 20.0891 20.8153 18.8734 21.7446L0.435463 35.8365C0.163298 36.0441 -5.07939e-07 36.3777 -4.92762e-07 36.725L-4.8507e-08 46.8883C-3.02041e-08 47.3071 0.227629 47.6866 0.593814 47.8756C0.964948 48.0696 1.40206 48.0305 1.73526 47.7768L18.5633 34.9139L18.2697 34.5037L1.44165 47.3649C1.25691 47.5062 1.02268 47.5266 0.816495 47.4194C0.615258 47.3156 0.494845 47.1164 0.494845 46.8866L0.494845 36.7233C0.494845 36.536 0.582267 36.3573 0.730721 36.245L19.167 22.1531C20.508 21.1268 21.2783 19.5591 21.2783 17.8485C21.2783 16.1378 20.508 14.5702 19.167 13.5438L1.73526 0.221321C1.40206 -0.0339966 0.963297 -0.0714417 0.592163 0.120895L0.593812 0.120895Z" fill="white"/>
<path opacity="0.5" d="M31.6616 24.0079L47.4175 36.0504C47.4175 36.0504 47.7523 36.287 47.7523 36.7329L47.7523 46.8963C47.7523 46.8963 47.749 47.8427 46.7544 47.7354C46.7544 47.7354 46.5482 47.6827 46.4113 47.5788L28.9796 34.2546C28.9796 34.2546 26.954 32.7687 26.9688 30.1559C26.9688 30.1559 26.9375 27.6181 28.9796 26.0572L31.6616 24.0079Z" fill="url(#paint2_linear_37_8072)"/>
<path opacity="0.5" d="M31.6616 24L47.4175 11.9575C47.4175 11.9575 47.7523 11.7209 47.7523 11.275L47.7523 1.11159C47.7523 1.11159 47.749 0.165216 46.7544 0.272449C46.7544 0.272449 46.5482 0.325212 46.4113 0.429042L28.9796 13.7532C28.9796 13.7532 26.954 15.2392 26.9688 17.8519C26.9688 17.8519 26.9375 20.3898 28.9796 21.9506L31.6616 24Z" fill="url(#paint3_linear_37_8072)"/>
<path d="M46.2644 0.222407L29.438 13.0836L29.7316 13.4938L46.5597 0.632621C46.7444 0.491344 46.9786 0.470916 47.1848 0.578151C47.386 0.681979 47.5065 0.881129 47.5065 1.11092L47.5065 11.2743C47.5065 11.4615 47.419 11.6402 47.2722 11.7526L28.8359 25.8444C27.4949 26.8708 26.7246 28.4385 26.7246 30.1491C26.7246 31.8597 27.4949 33.4274 28.8359 34.4537L46.2644 47.7779C46.5976 48.0333 47.0347 48.0707 47.4058 47.8784C47.772 47.6877 47.9997 47.3099 47.9997 46.8894L47.9997 36.7261C47.9997 36.3788 47.8364 36.0452 47.5642 35.8376L35.7654 26.8197L35.4718 27.2299L47.2706 36.2478C47.4174 36.3601 47.5065 36.5388 47.5065 36.7261L47.5065 46.8894C47.5065 47.1192 47.386 47.3184 47.1848 47.4222C46.9786 47.5294 46.7444 47.509 46.5597 47.3677L29.1279 34.0435C27.9139 33.1159 27.2162 31.6963 27.2162 30.1491C27.2162 28.6019 27.9122 27.184 29.1279 26.2546L47.5642 12.1628C47.8364 11.9534 47.9997 11.6215 47.9997 11.2743L47.9997 1.11092C47.9997 0.69049 47.772 0.312621 47.4058 0.121982C47.0347 -0.0703553 46.5976 -0.0329103 46.2644 0.222407Z" fill="white"/>
<defs>
<linearGradient id="paint0_linear_37_8072" x1="19.4479" y1="20.9989" x2="-0.518003" y2="5.82293" gradientUnits="userSpaceOnUse">
<stop stop-color="#232323" stop-opacity="0"/>
<stop offset="1" stop-color="white" stop-opacity="0.7"/>
</linearGradient>
<linearGradient id="paint1_linear_37_8072" x1="19.8617" y1="26.9985" x2="-0.496982" y2="41.7411" gradientUnits="userSpaceOnUse">
<stop stop-color="#232323" stop-opacity="0"/>
<stop offset="1" stop-color="white" stop-opacity="0.7"/>
</linearGradient>
<linearGradient id="paint2_linear_37_8072" x1="28.1377" y1="27.4288" x2="48.5144" y2="42.5943" gradientUnits="userSpaceOnUse">
<stop stop-color="#232323" stop-opacity="0"/>
<stop offset="1" stop-color="white" stop-opacity="0.7"/>
</linearGradient>
<linearGradient id="paint3_linear_37_8072" x1="27.3101" y1="19.7152" x2="48.4341" y2="6.25399" gradientUnits="userSpaceOnUse">
<stop stop-color="#232323" stop-opacity="0"/>
<stop offset="1" stop-color="white" stop-opacity="0.7"/>
</linearGradient>
</defs>
</svg>
