<svg width="48" height="48" viewBox="0 0 48 48" fill="none" xmlns="http://www.w3.org/2000/svg">
<path opacity="0.5" d="M31.6212 24.0009L47.357 36.0434C47.357 36.0434 47.6914 36.28 47.6914 36.726L47.6914 46.8894C47.6914 46.8894 47.6881 47.8358 46.6947 47.7286C46.6947 47.7286 46.4888 47.6758 46.3521 47.572L28.9426 34.2477C28.9426 34.2477 26.9196 32.7617 26.9344 30.149C26.9344 30.149 26.9031 27.6111 28.9426 26.0502L31.6212 24.0009Z" fill="url(#paint0_linear_37_8274)"/>
<path opacity="0.5" d="M31.6212 23.9923L47.357 11.9514C47.357 11.9514 47.6914 11.7148 47.6914 11.2689L47.6914 1.10372C47.6914 1.10372 47.6881 0.157339 46.6947 0.264574C46.6947 0.264574 46.4888 0.31734 46.3521 0.42117L28.9426 13.7438C28.9426 13.7438 26.9196 15.2297 26.9344 17.8425C26.9344 17.8425 26.9031 20.3804 28.9426 21.9412L31.6212 23.9906L31.6212 23.9923Z" fill="url(#paint1_linear_37_8274)"/>
<path d="M47.3454 47.8782C47.7111 47.6876 47.9385 47.3097 47.9385 46.8893L47.9385 36.7259C47.9385 36.3786 47.7754 36.045 47.5036 35.8374L35.7858 26.8688L35.7199 26.8178L35.425 27.228L47.2087 36.2476C47.3553 36.3599 47.4443 36.5386 47.4443 36.7259L47.4443 46.8893C47.4443 47.1191 47.324 47.3182 47.123 47.4221C46.9171 47.5293 46.6832 47.5089 46.4987 47.3676L29.0892 34.0433C27.8767 33.1156 27.1798 31.6961 27.1798 30.1488C27.1798 28.6016 27.875 27.1837 29.0892 26.2544L47.5036 12.1624C47.7754 11.9547 47.9385 11.6211 47.9385 11.2739L47.9385 1.11045C47.9385 0.691728 47.7111 0.312152 47.3454 0.123216C46.9748 -0.0708274 46.5382 -0.0316784 46.2054 0.221939L29.3989 13.085L29.6921 13.4952L46.4987 0.633855C46.6832 0.492578 46.9171 0.472153 47.123 0.579387C47.324 0.683217 47.4443 0.882367 47.4443 1.11215L47.4443 11.2756C47.4443 11.4628 47.357 11.6415 47.2087 11.7539L28.7959 25.8458C27.4566 26.8722 26.6873 28.4399 26.6873 30.1505C26.6873 31.8612 27.4566 33.4288 28.7959 34.4552L46.2054 47.7778C46.5382 48.0331 46.9764 48.0706 47.3471 47.8782L47.3454 47.8782Z" fill="#54B990"/>
<path opacity="0.5" d="M16.318 23.9923L0.582237 11.9497C0.582237 11.9497 0.247817 11.7131 0.247818 11.2672L0.247818 1.10372C0.247818 1.10372 0.251112 0.157339 1.24448 0.264573C1.24448 0.264573 1.45041 0.317339 1.58714 0.421169L18.9966 13.7455C18.9966 13.7455 21.0196 15.2314 21.0048 17.8442C21.0048 17.8442 21.0361 20.3821 18.9966 21.9429L16.318 23.9923Z" fill="url(#paint2_linear_37_8274)"/>
<path opacity="0.5" d="M16.317 24.0009L0.58126 36.0434C0.58126 36.0434 0.246841 36.28 0.246841 36.726L0.24684 46.8894C0.24684 46.8894 0.250134 47.8358 1.2435 47.7286C1.2435 47.7286 1.44943 47.6758 1.58616 47.572L18.9957 34.2477C18.9957 34.2477 21.0187 32.7617 21.0038 30.149C21.0038 30.149 21.0351 27.6111 18.9957 26.0502L16.317 24.0009Z" fill="url(#paint3_linear_37_8274)"/>
<path d="M1.73318 47.7779L18.5381 34.9166L18.2449 34.5064L1.43831 47.3677C1.2538 47.509 1.01987 47.5294 0.813948 47.4222C0.612968 47.3184 0.492708 47.1192 0.492708 46.8894L0.492709 36.726C0.492709 36.5388 0.580021 36.36 0.726637 36.2477L19.1394 22.1557C20.4787 21.1294 21.248 19.5617 21.248 17.851C21.248 16.1404 20.4787 14.5727 19.1394 13.5464L1.73319 0.22206C1.40042 -0.0332596 0.963861 -0.0707065 0.593203 0.121634C0.227484 0.312273 0.000144928 0.690147 0.00014491 1.11057L0.000144466 11.274C0.000144451 11.6212 0.163236 11.9549 0.435054 12.1625L12.2188 21.1804L12.512 20.7702L0.728288 11.7523C0.58167 11.64 0.49271 11.4612 0.49271 11.274L0.49271 1.11057C0.49271 0.880786 0.61297 0.681636 0.81395 0.577806C1.01987 0.470572 1.2538 0.490997 1.43831 0.632274L18.8478 13.9566C20.0603 14.8842 20.7571 16.3038 20.7571 17.851C20.7571 19.3983 20.0619 20.8162 18.8478 21.7455L0.435053 35.8375C0.163235 36.0468 0.00014337 36.3788 0.000143355 36.726L0.000142911 46.8894C0.000142893 47.3099 0.227482 47.6877 0.593201 47.8784C0.963859 48.0707 1.40041 48.0333 1.73318 47.7779Z" fill="#54B990"/>
<defs>
<linearGradient id="paint0_linear_37_8274" x1="28.515" y1="27" x2="48.4742" y2="42.1514" gradientUnits="userSpaceOnUse">
<stop stop-color="white" stop-opacity="0"/>
<stop offset="1" stop-color="#54B990" stop-opacity="0.5"/>
</linearGradient>
<linearGradient id="paint1_linear_37_8274" x1="28.1018" y1="21" x2="48.4525" y2="6.28206" gradientUnits="userSpaceOnUse">
<stop stop-color="white" stop-opacity="0"/>
<stop offset="1" stop-color="#54B990" stop-opacity="0.5"/>
</linearGradient>
<linearGradient id="paint2_linear_37_8274" x1="19.8374" y1="20.5714" x2="-0.531909" y2="5.4308" gradientUnits="userSpaceOnUse">
<stop stop-color="white" stop-opacity="0"/>
<stop offset="1" stop-color="#54B990" stop-opacity="0.5"/>
</linearGradient>
<linearGradient id="paint3_linear_37_8274" x1="20.663" y1="28.2857" x2="-0.449687" y2="41.7224" gradientUnits="userSpaceOnUse">
<stop stop-color="white" stop-opacity="0"/>
<stop offset="1" stop-color="#54B990" stop-opacity="0.5"/>
</linearGradient>
</defs>
</svg>
