<svg width="32" height="32" viewBox="0 0 32 32" fill="none" xmlns="http://www.w3.org/2000/svg">
<path d="M26.5848 10.6667H28.0007C29.4735 10.6667 30.6673 11.8606 30.6673 13.3334V18.6667C30.6673 20.1395 29.4735 21.3334 28.0007 21.3334H26.5848C25.9287 26.5951 21.4401 30.6667 16.0007 30.6667V28C20.4189 28 24.0007 24.4183 24.0007 20V12C24.0007 7.58176 20.4189 4.00004 16.0007 4.00004C11.5824 4.00004 8.00065 7.58176 8.00065 12V21.3334H4.00065C2.52789 21.3334 1.33398 20.1395 1.33398 18.6667V13.3334C1.33398 11.8606 2.52789 10.6667 4.00065 10.6667H5.4165C6.07264 5.40496 10.5612 1.33337 16.0007 1.33337C21.4401 1.33337 25.9287 5.40496 26.5848 10.6667ZM4.00065 13.3334V18.6667H5.33398V13.3334H4.00065ZM26.6673 13.3334V18.6667H28.0007V13.3334H26.6673ZM10.3466 21.0466L11.7601 18.785C12.9895 19.555 14.4431 20 16.0007 20C17.5583 20 19.0119 19.555 20.2412 18.785L21.6548 21.0466C20.0156 22.0732 18.0775 22.6667 16.0007 22.6667C13.9239 22.6667 11.9857 22.0732 10.3466 21.0466Z" fill="#9E9E9E"/>
</svg>
