<svg width="32" height="32" viewBox="0 0 32 32" fill="none" xmlns="http://www.w3.org/2000/svg">
<path d="M6.67318 12.0039C7.40956 12.0039 8.00651 12.6008 8.00651 13.3372C10.1862 13.3372 12.1914 14.0844 13.7799 15.3366L16.6732 15.3372C18.45 15.3372 20.0464 16.1096 21.1451 17.3369L25.3399 17.3372C27.9963 17.3372 30.2897 18.8909 31.3613 21.139C28.2083 25.3 23.1024 28.0038 17.3399 28.0038C13.6189 28.0038 10.4729 27.1996 7.92534 25.7933C7.74076 26.3046 7.2497 26.6705 6.67318 26.6705H2.67318C1.9368 26.6705 1.33984 26.0736 1.33984 25.3372V13.3372C1.33984 12.6008 1.9368 12.0039 2.67318 12.0039H6.67318ZM8.00786 16.0038L8.00651 22.6998L8.06699 22.7432C10.4587 24.4237 13.5773 25.3372 17.3399 25.3372C21.3452 25.3372 25.0713 23.7964 27.7867 21.1646L27.9639 20.9865L27.8049 20.8526C27.1863 20.3686 26.4273 20.0684 25.6132 20.0132L25.3399 20.0038L22.5245 20.004C22.6219 20.4328 22.6732 20.879 22.6732 21.3372V22.6705H10.6732V20.0038L19.7265 20.0025L19.6807 19.898C19.1733 18.8398 18.124 18.0909 16.8924 18.0109L16.6732 18.0038L12.7673 18.0037C11.5576 16.7698 9.87216 16.0042 8.00786 16.0038ZM5.33984 14.6705H4.00651V24.0038H5.33984V14.6705ZM24.0065 6.67053C26.2156 6.67053 28.0065 8.4614 28.0065 10.6705C28.0065 12.8797 26.2156 14.6705 24.0065 14.6705C21.7973 14.6705 20.0065 12.8797 20.0065 10.6705C20.0065 8.4614 21.7973 6.67053 24.0065 6.67053ZM24.0065 9.3372C23.2701 9.3372 22.6732 9.93414 22.6732 10.6705C22.6732 11.4069 23.2701 12.0039 24.0065 12.0039C24.7429 12.0039 25.3399 11.4069 25.3399 10.6705C25.3399 9.93414 24.7429 9.3372 24.0065 9.3372ZM14.6732 2.67053C16.8823 2.67053 18.6732 4.4614 18.6732 6.67053C18.6732 8.87967 16.8823 10.6705 14.6732 10.6705C12.464 10.6705 10.6732 8.87967 10.6732 6.67053C10.6732 4.4614 12.464 2.67053 14.6732 2.67053ZM14.6732 5.3372C13.9368 5.3372 13.3399 5.93415 13.3399 6.67053C13.3399 7.40691 13.9368 8.00387 14.6732 8.00387C15.4096 8.00387 16.0065 7.40691 16.0065 6.67053C16.0065 5.93415 15.4096 5.3372 14.6732 5.3372Z" fill="#9E9E9E"/>
</svg>
