<svg viewBox="0 0 234 46" fill="none" xmlns="http://www.w3.org/2000/svg">
<path d="M3.20723 44.8182C1.06908 44.8182 0 43.9052 0 42.0791C0 41.764 0.065645 40.7444 0.196935 39.0203L1.11128 39.0898C1.03625 40.4802 0.998742 41.3932 0.998742 41.8289C0.998742 42.4592 1.20505 42.8856 1.61768 43.108C2.03968 43.3305 2.60235 43.4417 3.30569 43.4417C4.45917 43.4417 5.4204 43.2146 6.18938 42.7604L6.02058 34.0706L7.20219 33.9316V42.3016C7.20219 42.8392 7.01464 43.298 6.63952 43.6781C6.26441 44.0581 5.77207 44.3408 5.16251 44.5262C4.55295 44.7209 3.90119 44.8182 3.20723 44.8182Z" fill="#54B990"/>
<path d="M12.4811 42.969C11.834 42.969 11.2948 42.918 10.8634 42.816C10.4414 42.7048 10.1038 42.4916 9.85059 42.1765C9.59739 41.8613 9.46141 41.4025 9.44266 40.8L9.25979 34.0706L10.4414 33.9316V40.6192C10.4414 40.8602 10.4977 41.0503 10.6102 41.1893C10.7227 41.3283 10.9244 41.4303 11.2151 41.4952C11.5058 41.5601 11.9278 41.5925 12.4811 41.5925L12.6218 41.7315V42.8299L12.4811 42.969Z" fill="#54B990"/>
<path d="M12.4754 41.5925H12.7848C13.2537 41.5925 13.6617 41.5508 14.0086 41.4674C14.3556 41.384 14.5901 41.2866 14.712 41.1754L14.5854 37.6856L15.7389 37.616V39.9797C15.7389 41.1105 15.4622 41.8938 14.9089 42.3294C14.3556 42.7558 13.5444 42.969 12.4754 42.969V41.5925ZM17.5535 42.969C17.1315 42.969 16.747 42.9412 16.4 42.8856C16.053 42.8207 15.7342 42.6585 15.4435 42.3989C15.1527 42.1394 15.0074 41.7408 15.0074 41.2032V38.0332H15.7389V40.2995C15.7389 40.8185 15.8889 41.1661 16.189 41.3422C16.4985 41.5091 16.9533 41.5925 17.5535 41.5925L17.6941 41.7315V42.8299L17.5535 42.969ZM15.0215 34.9882V36.2674H13.3475V34.9882H15.0215ZM16.6813 34.9882V36.2674H15.0215V34.9882H16.6813Z" fill="#54B990"/>
<path d="M17.5581 41.5925H17.8676C18.3365 41.5925 18.7444 41.5508 19.0914 41.4674C19.4384 41.384 19.6728 41.2866 19.7947 41.1754L19.6681 37.6856L20.8216 37.616V39.9797C20.8216 41.1105 20.5449 41.8938 19.9916 42.3294C19.4384 42.7558 18.6272 42.969 17.5581 42.969V41.5925ZM22.6362 42.969C22.2142 42.969 21.8297 42.9412 21.4827 42.8856C21.1357 42.8207 20.8169 42.6585 20.5262 42.3989C20.2355 42.1394 20.0901 41.7408 20.0901 41.2032V38.0332H20.8216V40.2995C20.8216 40.8185 20.9716 41.1661 21.2717 41.3422C21.5812 41.5091 22.036 41.5925 22.6362 41.5925L22.7769 41.7315V42.8299L22.6362 42.969ZM20.1042 44.0952V45.3743H18.4302V44.0952H20.1042ZM21.7641 44.0952V45.3743H20.1042V44.0952H21.7641Z" fill="#54B990"/>
<path d="M31.1512 42.969C30.6448 42.969 30.2463 42.8948 29.9555 42.7465C29.6648 42.5889 29.4491 42.4036 29.3085 42.1904C29.1678 41.9679 28.9849 41.611 28.7599 41.1198C28.638 40.8232 28.5254 40.5683 28.4223 40.3551C28.4035 40.2995 28.3941 40.2531 28.3941 40.216C28.3941 40.0863 28.4457 39.9565 28.5489 39.8267C28.6614 39.6877 28.7646 39.6182 28.8583 39.6182C28.9052 39.6182 28.9427 39.6414 28.9709 39.6877C29.1678 40.0955 29.2991 40.3782 29.3647 40.5358C29.5617 40.9437 29.7914 41.2217 30.054 41.3701C30.326 41.5184 30.7245 41.5925 31.2497 41.5925H32.4876L32.6282 41.7315V42.8299L32.4876 42.969H31.1512ZM22.6408 41.5925H24.5398C25.2432 41.5925 25.7636 41.5508 26.1012 41.4674C26.4482 41.384 26.7436 41.2403 26.9875 41.0364C27.2407 40.8232 27.6533 40.4153 28.2253 39.8128L29.1115 38.8674L30.7996 39.5904C30.5464 39.544 30.3588 39.5209 30.2369 39.5209C30.0493 39.5209 29.8899 39.5579 29.7586 39.6321C29.6367 39.7062 29.496 39.8267 29.3366 39.9936C28.4738 40.9483 27.8174 41.6203 27.3673 42.0096C26.9265 42.3897 26.4764 42.6446 26.0168 42.7743C25.5573 42.9041 24.9009 42.969 24.0475 42.969H22.6408V41.5925ZM23.513 39.7294L23.6818 38.7283C23.7662 38.2742 23.9397 37.9219 24.2022 37.6717C24.4742 37.4214 24.8446 37.2963 25.3135 37.2963C25.5292 37.2963 25.7355 37.3148 25.9324 37.3519L31.1231 38.3668L30.7996 39.5904C30.7527 39.5718 30.6214 39.5301 30.4057 39.4652C30.3494 39.4467 30.2744 39.4235 30.1806 39.3957C30.0868 39.3679 29.9931 39.3447 29.8993 39.3262C29.8711 39.3262 29.8289 39.3401 29.7727 39.3679C29.7164 39.3865 29.6742 39.3911 29.6461 39.3818C28.9615 39.2428 27.658 38.9925 25.7355 38.631L24.5961 38.4086L24.3429 39.8684L23.513 39.7294ZM25.5948 44.0813H26.9593V45.4856H25.5948V44.0813Z" fill="#54B990"/>
<path d="M32.4903 41.5925C32.8748 41.5925 33.2968 41.5647 33.7563 41.5091C34.2158 41.4535 34.5394 41.3654 34.7269 41.2449L34.5722 37.4492L35.7679 37.3797V40.6053C35.7679 41.4674 35.4912 42.0791 34.9379 42.4406C34.3846 42.7929 33.5688 42.969 32.4903 42.969V41.5925ZM34.1502 44.0952V45.3743H32.4762V44.0952H34.1502ZM35.8101 44.0952V45.3743H34.1502V44.0952H35.8101Z" fill="#54B990"/>
<path d="M43.2912 39.3679C43.4975 39.8963 43.6007 40.369 43.6007 40.7861C43.6007 42.3062 42.1987 43.0663 39.3947 43.0663C38.7664 43.0663 38.3162 42.9273 38.0443 42.6492C37.7723 42.3618 37.6363 41.903 37.6363 41.2727V39.3957L38.5929 39.4235V41.6759L39.254 41.6898C41.0077 41.6898 42.1799 41.5091 42.7707 41.1476L41.0968 37.0321L42.0814 36.2952L43.2912 39.3679Z" fill="#54B990"/>
<path d="M51.1674 45.0684C50.0327 45.0684 49.184 44.8506 48.6213 44.415C48.068 43.9793 47.7913 43.2749 47.7913 42.3016C47.7913 42.0606 47.8101 41.6203 47.8476 40.9807C47.8945 40.3319 47.9414 39.7619 47.9883 39.2706L48.9026 39.3401C48.8276 40.9251 48.7901 41.8335 48.7901 42.0652C48.7901 42.7048 49.0011 43.1358 49.4231 43.3583C49.8545 43.5807 50.4687 43.692 51.2658 43.692C52.1286 43.692 52.8788 43.6039 53.5165 43.4278C54.1636 43.2517 54.7028 43.0246 55.1342 42.7465L55.092 41.7733C55.092 41.6528 55.167 41.5925 55.3171 41.5925C55.4859 41.5925 55.6594 41.6667 55.8375 41.815C56.0157 41.9633 56.1048 42.1487 56.1048 42.3711C56.1048 42.9643 55.861 43.4649 55.3733 43.8727C54.8857 44.2806 54.2621 44.5818 53.5025 44.7765C52.7522 44.9711 51.9739 45.0684 51.1674 45.0684ZM55.1342 41.8845L52.6444 41.6342C51.6222 41.523 51.1111 41.0086 51.1111 40.0909C51.1111 39.8128 51.1486 39.5116 51.2236 39.1872C51.308 38.8535 51.4206 38.4688 51.5612 38.0332C51.7394 37.4863 52.0067 37.0645 52.3631 36.7679C52.7288 36.4713 53.1649 36.323 53.6713 36.323C54.0182 36.323 54.6466 36.4574 55.5562 36.7262L55.2327 37.6995C54.5762 37.5697 54.0698 37.5048 53.7135 37.5048C53.0945 37.5048 52.6725 37.8014 52.4475 38.3946C52.3349 38.682 52.2271 39.0203 52.1239 39.4096C52.0301 39.7897 51.9645 40.0955 51.927 40.3273L54.7263 40.6332C55.2139 40.698 55.5656 40.8742 55.7813 41.1615C55.997 41.4488 56.1048 41.852 56.1048 42.3711L55.1342 41.8845Z" fill="#54B990"/>
<path d="M61.234 42.969C60.587 42.969 60.0477 42.918 59.6163 42.816C59.1943 42.7048 58.8567 42.4916 58.6035 42.1765C58.3503 41.8613 58.2144 41.4025 58.1956 40.8L58.0127 34.0706L59.1943 33.9316V40.6192C59.1943 40.8602 59.2506 41.0503 59.3631 41.1893C59.4757 41.3283 59.6773 41.4303 59.968 41.4952C60.2587 41.5601 60.6807 41.5925 61.234 41.5925L61.3747 41.7315V42.8299L61.234 42.969Z" fill="#54B990"/>
<path d="M61.2283 42.969V41.5925C63.5259 41.5925 65.0263 41.5786 65.7297 41.5508V38.7422L63.6478 38.5476L63.2821 40.4107C63.2727 40.457 63.268 40.5219 63.268 40.6053C63.268 40.8649 63.3524 41.092 63.5212 41.2866C63.6994 41.472 63.9151 41.5647 64.1683 41.5647L65.7297 41.5508L64.4777 42.6353C64.0839 42.6446 63.7181 42.5658 63.3805 42.3989C63.0523 42.2321 62.7897 42.0004 62.5928 41.7037C62.4052 41.3979 62.3115 41.0595 62.3115 40.6888C62.3115 40.5497 62.3255 40.4061 62.3537 40.2578L62.7053 38.5893C62.7803 38.2278 62.9538 37.9312 63.2258 37.6995C63.4977 37.4677 63.8213 37.3704 64.1964 37.4075L66.63 37.616V41.4118C66.63 41.903 66.4143 42.2599 65.9829 42.4823C65.5515 42.7048 64.9982 42.8438 64.323 42.8995C63.6572 42.9458 62.7006 42.969 61.4534 42.969H61.2283ZM68.5712 43.0107C68.1304 43.0107 67.7037 42.9643 67.2911 42.8717C66.8785 42.779 66.5268 42.6677 66.2361 42.538C65.9548 42.4082 65.7813 42.2923 65.7156 42.1904C65.6875 42.144 65.6734 42.093 65.6734 42.0374C65.6734 41.9169 65.7203 41.7686 65.8141 41.5925C65.9079 41.4071 66.0016 41.2681 66.0954 41.1754C66.2924 41.333 66.7472 41.4859 67.4599 41.6342C68.1726 41.7733 68.74 41.8381 69.162 41.8289V40.7305C69.162 39.9889 68.8384 39.4328 68.1914 39.062L65.167 37.3102L65.8281 36.2118L68.4868 37.7829C69.5371 38.4132 70.0622 39.2706 70.0622 40.3551V41.3422C70.0622 41.9355 69.9497 42.3618 69.7246 42.6214C69.509 42.8809 69.1245 43.0107 68.5712 43.0107Z" fill="#54B990"/>
<path d="M69.1264 44.6791C69.9141 44.5216 70.5846 44.3176 71.1379 44.0674C71.7006 43.8171 72.1226 43.5576 72.4039 43.2888C72.6946 43.02 72.8447 42.7743 72.8541 42.5519L72.8681 41.954C72.8681 41.9169 72.9103 41.8335 72.9947 41.7037C73.0885 41.5647 73.1917 41.4396 73.3042 41.3283C73.4167 41.2171 73.5105 41.1615 73.5855 41.1615C73.6887 41.1615 73.7403 41.2774 73.7403 41.5091C73.7403 42.2043 73.6606 42.816 73.5011 43.3444C73.3511 43.882 72.9572 44.3964 72.3195 44.8877C71.6818 45.3882 70.7019 45.759 69.3796 46L69.1264 44.6791ZM72.4461 37.9775L73.6137 37.8802C73.6981 39.6692 73.7403 40.8788 73.7403 41.5091C73.7403 41.9818 73.6887 42.3618 73.5855 42.6492C73.4918 42.9273 73.3745 43.1219 73.2339 43.2332C73.1026 43.3537 72.9854 43.4139 72.8822 43.4139C72.8259 43.4139 72.7884 43.4 72.7697 43.3722L72.4461 37.9775ZM73.7403 35.1273V36.5315H72.3758V35.1273H73.7403Z" fill="#54B990"/>
<path d="M73.9618 44.6791C74.7496 44.5216 75.4201 44.3176 75.9734 44.0674C76.536 43.8171 76.9581 43.5576 77.2394 43.2888C77.5301 43.02 77.6801 42.7743 77.6895 42.5519L77.7036 41.954C77.7036 41.9169 77.7458 41.8335 77.8302 41.7037C77.924 41.5647 78.0271 41.4396 78.1397 41.3283C78.2522 41.2171 78.346 41.1615 78.421 41.1615C78.5241 41.1615 78.5757 41.2774 78.5757 41.5091C78.5757 42.2043 78.496 42.816 78.3366 43.3444C78.1865 43.882 77.7927 44.3964 77.155 44.8877C76.5173 45.3882 75.5373 45.759 74.215 46L73.9618 44.6791ZM77.2816 37.9775L78.4491 37.8802C78.5335 39.6692 78.5757 40.8788 78.5757 41.5091C78.5757 41.9818 78.5241 42.3618 78.421 42.6492C78.3272 42.9273 78.21 43.1219 78.0693 43.2332C77.938 43.3537 77.8208 43.4139 77.7177 43.4139C77.6614 43.4139 77.6239 43.4 77.6051 43.3722L77.2816 37.9775Z" fill="#54B990"/>
<path d="M80.5416 34.0706L81.7232 33.9316V42.969L80.6963 43.0802L80.5416 34.0706Z" fill="#54B990"/>
<path d="M86.1855 40.2995L86.284 39.4235C86.3403 38.8766 86.4716 38.4456 86.6779 38.1305C86.8936 37.8153 87.2359 37.5465 87.7047 37.3241L90.4056 36.1005L90.0961 37.477L87.6907 38.5754C87.5406 38.6403 87.4234 38.7283 87.339 38.8396C87.2546 38.9508 87.203 39.0806 87.1843 39.2289L87.0436 40.7305L86.1855 40.2995ZM88.1127 42.0652C87.4937 42.0652 87.0155 41.9586 86.6779 41.7455C86.3403 41.5323 86.1715 41.1476 86.1715 40.5914C86.1715 40.4617 86.1761 40.3643 86.1855 40.2995C86.2137 40.2717 86.2559 40.2578 86.3121 40.2578C86.4528 40.2578 86.6075 40.3134 86.7763 40.4246C86.9451 40.5358 87.0389 40.5961 87.0577 40.6053C87.2921 40.661 87.6532 40.6888 88.1408 40.6888C88.5159 40.6888 88.8957 40.6749 89.2802 40.6471C89.6741 40.61 89.932 40.5822 90.0539 40.5636L89.9132 37.6717L90.4759 37.9219L90.7854 39.5626C90.8416 39.8406 90.8698 40.0955 90.8698 40.3273C90.8698 40.9483 90.6494 41.3932 90.2086 41.662C89.7773 41.9308 89.0786 42.0652 88.1127 42.0652ZM92.0232 42.969C91.47 42.969 91.0198 42.7929 90.6728 42.4406C90.3259 42.0791 90.1289 41.6018 90.082 41.0086L89.66 35.2802L90.715 35.0578L90.9542 40.2438C90.9823 40.5683 91.0292 40.8278 91.0948 41.0225C91.1699 41.2078 91.2918 41.3515 91.4606 41.4535C91.6387 41.5462 91.892 41.5925 92.2202 41.5925H92.7266L92.8673 41.7315V42.8299L92.7266 42.969H92.0232Z" fill="#54B990"/>
<path d="M92.7275 41.5925C93.2526 41.5925 93.6746 41.5508 93.9935 41.4674C94.3217 41.3747 94.5515 41.2774 94.6827 41.1754L94.528 34.0706L95.7096 33.9316V39.9797C95.7096 41.0642 95.447 41.8335 94.9219 42.2877C94.4061 42.7419 93.6746 42.969 92.7275 42.969V41.5925ZM97.3695 42.969C96.7506 42.969 96.1973 42.8577 95.7096 42.6353C95.222 42.4128 94.9781 41.9216 94.9781 41.1615V38.7561H95.7096V40.2578C95.7096 40.7768 95.8456 41.1291 96.1176 41.3144C96.3989 41.4998 96.8162 41.5925 97.3695 41.5925L97.5102 41.7315V42.8299L97.3695 42.969Z" fill="#54B990"/>
<path d="M102.814 43.0107C102.514 43.0107 102.106 42.9597 101.591 42.8577C101.075 42.7465 100.606 42.5982 100.184 42.4128C99.762 42.2182 99.5228 42.0004 99.4666 41.7594C99.4384 41.6481 99.4244 41.523 99.4244 41.384C99.4244 41.1708 99.4572 40.9529 99.5228 40.7305C99.9167 40.9807 100.475 41.1986 101.197 41.384C101.928 41.5601 102.693 41.6667 103.49 41.7037V38.6866H101.661C101.089 38.6866 100.728 39.0203 100.578 39.6877L100.24 41.1754C100.109 41.7686 99.8229 42.2182 99.3821 42.5241C98.9414 42.8207 98.4303 42.969 97.8489 42.969H97.3706V41.5925H97.8348C98.3037 41.5925 98.646 41.5415 98.8617 41.4396C99.0867 41.3376 99.2415 41.1847 99.3259 40.9807C99.4197 40.7768 99.5181 40.4339 99.6213 39.9519L99.8323 38.9925C99.9542 38.4549 100.217 38.0517 100.62 37.7829C101.023 37.5141 101.534 37.3797 102.153 37.3797H104.39V41.523C104.39 42.0699 104.254 42.4545 103.982 42.677C103.71 42.8995 103.321 43.0107 102.814 43.0107Z" fill="#54B990"/>
<path d="M109.685 42.969C109.038 42.969 108.498 42.918 108.067 42.816C107.645 42.7048 107.307 42.4916 107.054 42.1765C106.801 41.8613 106.665 41.4025 106.646 40.8L106.463 34.0706L107.645 33.9316V40.6192C107.645 40.8602 107.701 41.0503 107.814 41.1893C107.926 41.3283 108.128 41.4303 108.419 41.4952C108.709 41.5601 109.131 41.5925 109.685 41.5925L109.825 41.7315V42.8299L109.685 42.969Z" fill="#54B990"/>
<path d="M110.678 37.5743C111.484 37.4446 112.202 37.3426 112.83 37.2684C113.468 37.185 114.068 37.1433 114.631 37.1433C115.681 37.1433 116.361 37.3102 116.67 37.6438C116.989 37.9683 117.148 38.339 117.148 38.7561C117.148 38.923 117.008 39.0064 116.726 39.0064C116.642 39.0064 116.562 38.9971 116.487 38.9786C116.412 38.9601 116.365 38.9415 116.347 38.923C116.244 38.7747 116.028 38.6542 115.7 38.5615C115.371 38.4688 114.968 38.4225 114.49 38.4225C114.012 38.4225 113.519 38.4503 113.013 38.5059C112.516 38.5522 111.92 38.6217 111.226 38.7144L110.847 38.7561L110.678 37.5743ZM109.679 41.5925C111.001 41.5925 111.977 41.5786 112.605 41.5508C113.243 41.523 113.772 41.472 114.194 41.3979C114.363 41.3701 114.532 41.4118 114.701 41.523C114.879 41.6342 114.968 41.7594 114.968 41.8984C114.968 42.0282 114.893 42.1394 114.743 42.2321C114.33 42.5194 113.636 42.7141 112.661 42.816C111.686 42.918 110.692 42.969 109.679 42.969V41.5925ZM112.535 41.5786C112.413 41.5323 112.281 41.2774 112.141 40.8139C112.009 40.3412 111.892 39.8314 111.789 39.2845C111.686 38.7376 111.634 38.39 111.634 38.2417C111.634 38.1212 111.667 38.0332 111.733 37.9775C111.808 37.9219 111.897 37.8941 112 37.8941C112.122 37.8941 112.235 37.9312 112.338 38.0053C112.45 38.0702 112.506 38.149 112.506 38.2417C112.506 38.2973 112.596 38.7237 112.774 39.5209C112.952 40.3087 113.083 40.8371 113.168 41.1059C113.111 41.2356 113.022 41.3608 112.9 41.4813C112.778 41.6018 112.657 41.6342 112.535 41.5786ZM118.077 42.969C117.242 42.969 116.511 42.9134 115.882 42.8021C115.254 42.6909 114.706 42.5519 114.237 42.385C113.777 42.2182 113.229 41.9864 112.591 41.6898C112.563 41.662 112.549 41.6157 112.549 41.5508C112.549 41.4303 112.581 41.2959 112.647 41.1476C112.722 40.9993 112.783 40.9298 112.83 40.939C113.74 41.2171 114.56 41.3979 115.292 41.4813C116.023 41.5554 116.952 41.5925 118.077 41.5925L118.218 41.7315V42.8299L118.077 42.969ZM115.123 42.3433C115.067 42.3618 114.982 42.334 114.87 42.2599C114.757 42.1857 114.659 42.093 114.574 41.9818C114.49 41.8613 114.448 41.7547 114.448 41.662C114.448 41.6064 114.471 41.5554 114.518 41.5091C114.668 41.4257 114.879 41.2078 115.151 40.8556C115.432 40.4941 115.69 40.1094 115.925 39.7016C116.169 39.2845 116.314 38.9554 116.361 38.7144C116.37 38.6496 116.417 38.5986 116.501 38.5615C116.586 38.5244 116.68 38.5059 116.783 38.5059C116.886 38.5059 116.97 38.5291 117.036 38.5754C117.111 38.6125 117.148 38.6727 117.148 38.7561C117.148 39.0713 117.045 39.4652 116.839 39.938C116.642 40.4014 116.384 40.8556 116.065 41.3005C115.756 41.7455 115.442 42.093 115.123 42.3433Z" fill="#54B990"/>
<path d="M123.516 43.0107C123.216 43.0107 122.808 42.9597 122.292 42.8577C121.777 42.7465 121.308 42.5982 120.886 42.4128C120.464 42.2182 120.225 42.0004 120.168 41.7594C120.14 41.6481 120.126 41.523 120.126 41.384C120.126 41.1708 120.159 40.9529 120.225 40.7305C120.618 40.9807 121.176 41.1986 121.899 41.384C122.63 41.5601 123.394 41.6667 124.191 41.7037V38.6866H122.363C121.791 38.6866 121.43 39.0203 121.28 39.6877L120.942 41.1754C120.811 41.7686 120.525 42.2182 120.084 42.5241C119.643 42.8207 119.132 42.969 118.551 42.969H118.072V41.5925H118.537C119.005 41.5925 119.348 41.5415 119.563 41.4396C119.789 41.3376 119.943 41.1847 120.028 40.9807C120.121 40.7768 120.22 40.4339 120.323 39.9519L120.534 38.9925C120.656 38.4549 120.919 38.0517 121.322 37.7829C121.725 37.5141 122.236 37.3797 122.855 37.3797H125.092V41.523C125.092 42.0699 124.956 42.4545 124.684 42.677C124.412 42.8995 124.023 43.0107 123.516 43.0107Z" fill="#54B990"/>
<path d="M132.721 44.8182C130.582 44.8182 129.513 43.9052 129.513 42.0791C129.513 41.764 129.579 40.7444 129.71 39.0203L130.625 39.0898C130.55 40.4802 130.512 41.3932 130.512 41.8289C130.512 42.4592 130.718 42.8856 131.131 43.108C131.553 43.3305 132.116 43.4417 132.819 43.4417C133.485 43.4417 134.113 43.3722 134.704 43.2332C135.304 43.0941 135.778 42.9273 136.125 42.7326L135.97 38.1027L137.137 37.9775V42.2182C137.137 42.7743 136.931 43.2471 136.519 43.6364C136.106 44.0349 135.562 44.3315 134.887 44.5262C134.221 44.7209 133.499 44.8182 132.721 44.8182ZM138.952 42.969C138.549 42.969 138.188 42.9412 137.869 42.8856C137.56 42.8207 137.278 42.6585 137.025 42.3989C136.772 42.1394 136.645 41.7408 136.645 41.2032V38.6032L137.137 38.5893V40.2995C137.137 40.8185 137.288 41.1661 137.588 41.3422C137.897 41.5091 138.352 41.5925 138.952 41.5925L139.093 41.7315V42.8299L138.952 42.969ZM133.902 37.5882V38.9925H132.538V37.5882H133.902Z" fill="#54B990"/>
<path d="M138.953 41.5925C139.337 41.5925 139.759 41.5647 140.219 41.5091C140.678 41.4535 141.002 41.3654 141.189 41.2449L141.035 37.4492L142.23 37.3797V40.6053C142.23 41.4674 141.954 42.0791 141.4 42.4406C140.847 42.7929 140.031 42.969 138.953 42.969V41.5925ZM140.613 44.0952V45.3743H138.939V44.0952H140.613ZM142.273 44.0952V45.3743H140.613V44.0952H142.273Z" fill="#54B990"/>
<path d="M144.549 41.5925H146.195C147.217 41.5925 147.897 41.4998 148.234 41.3144L148.08 34.0706L149.261 33.9316V40.3273C149.261 41.2913 149.018 41.9725 148.53 42.3711C148.052 42.7697 147.273 42.969 146.195 42.969H144.436L144.549 41.5925ZM144.282 34.8631L145.463 34.7241V42.8299L144.436 42.969L144.282 34.8631ZM150.935 42.969C150.063 42.969 149.444 42.8207 149.078 42.5241C148.722 42.2274 148.544 41.7223 148.544 41.0086V38.0192H149.261V39.9241C149.261 40.3783 149.308 40.7258 149.402 40.9668C149.496 41.1986 149.66 41.3608 149.894 41.4535C150.138 41.5462 150.485 41.5925 150.935 41.5925L151.076 41.7315V42.8299L150.935 42.969Z" fill="#54B990"/>
<path d="M150.932 41.5925C151.316 41.5925 151.738 41.5647 152.198 41.5091C152.657 41.4535 152.981 41.3654 153.168 41.2449L153.013 37.4492L154.209 37.3797V40.6053C154.209 41.4674 153.932 42.0791 153.379 42.4406C152.826 42.7929 152.01 42.969 150.932 42.969V41.5925ZM153.084 34.6406V36.0449H151.719V34.6406H153.084Z" fill="#54B990"/>
<path d="M156.26 35.8086L157.442 35.6695V42.969L156.415 43.0802L156.26 35.8086ZM158.933 34.015C158.267 34.2004 157.559 34.293 156.809 34.293C156.199 34.293 155.637 34.2374 155.121 34.1262L154.685 34.015L155.093 33.0278C155.627 33.1854 156.195 33.2642 156.795 33.2642C157.433 33.2642 158.169 33.1761 159.003 33L158.933 34.015ZM155.36 33.7508L155.599 35.0717L154.924 35.2524L154.685 34.015L155.36 33.7508Z" fill="#54B990"/>
<path d="M160.162 44.6791C160.95 44.5216 161.62 44.3176 162.174 44.0674C162.736 43.8171 163.158 43.5576 163.44 43.2888C163.73 43.02 163.88 42.7743 163.89 42.5519L163.904 41.954C163.904 41.9169 163.946 41.8335 164.03 41.7037C164.124 41.5647 164.227 41.4396 164.34 41.3283C164.452 41.2171 164.546 41.1615 164.621 41.1615C164.724 41.1615 164.776 41.2774 164.776 41.5091C164.776 42.2043 164.696 42.816 164.537 43.3444C164.387 43.882 163.993 44.3964 163.355 44.8877C162.718 45.3882 161.738 45.759 160.415 46L160.162 44.6791ZM163.482 37.9775L164.649 37.8802C164.734 39.6692 164.776 40.8788 164.776 41.5091C164.776 41.9818 164.724 42.3618 164.621 42.6492C164.527 42.9273 164.41 43.1219 164.27 43.2332C164.138 43.3537 164.021 43.4139 163.918 43.4139C163.862 43.4139 163.824 43.4 163.805 43.3722L163.482 37.9775Z" fill="#54B990"/>
<path d="M166.742 34.0706L167.923 33.9316V42.969L166.897 43.0802L166.742 34.0706Z" fill="#54B990"/>
<path d="M167.113 44.6791C167.901 44.5216 168.571 44.3176 169.125 44.0674C169.687 43.8171 170.109 43.5576 170.391 43.2888C170.681 43.02 170.831 42.7743 170.841 42.5519L170.855 41.954C170.855 41.9169 170.897 41.8335 170.981 41.7037C171.075 41.5647 171.178 41.4396 171.291 41.3283C171.403 41.2171 171.497 41.1615 171.572 41.1615C171.675 41.1615 171.727 41.2774 171.727 41.5091C171.727 42.2043 171.647 42.816 171.488 43.3444C171.338 43.882 170.944 44.3964 170.306 44.8877C169.669 45.3882 168.689 45.759 167.366 46L167.113 44.6791ZM170.433 37.9775L171.6 37.8802C171.685 39.6692 171.727 40.8788 171.727 41.5091C171.727 41.9818 171.675 42.3618 171.572 42.6492C171.478 42.9273 171.361 43.1219 171.221 43.2332C171.089 43.3537 170.972 43.4139 170.869 43.4139C170.813 43.4139 170.775 43.4 170.756 43.3722L170.433 37.9775ZM171.727 35.1273V36.5315H170.362V35.1273H171.727Z" fill="#54B990"/>
<path d="M176.914 42.969C176.267 42.969 175.728 42.918 175.296 42.816C174.874 42.7048 174.537 42.4916 174.284 42.1765C174.03 41.8613 173.894 41.4025 173.876 40.8L173.693 34.0706L174.874 33.9316V40.6192C174.874 40.8602 174.931 41.0503 175.043 41.1893C175.156 41.3283 175.357 41.4303 175.648 41.4952C175.939 41.5601 176.361 41.5925 176.914 41.5925L177.055 41.7315V42.8299L176.914 42.969Z" fill="#54B990"/>
<path d="M176.908 41.5925C177.293 41.5925 177.715 41.5647 178.174 41.5091C178.634 41.4535 178.957 41.3654 179.145 41.2449L178.99 37.4492L180.186 37.3797V40.6053C180.186 41.4674 179.909 42.0791 179.356 42.4406C178.803 42.7929 177.987 42.969 176.908 42.969V41.5925ZM176.908 44.0535H178.273V45.4577H176.908V44.0535Z" fill="#54B990"/>
<path d="M41.6243 24C39.7692 24 38.3743 23.6145 37.4394 22.8436C36.5045 22.0727 36.0371 20.8364 36.0371 19.1345C36.0371 18.48 36.1467 16.7927 36.3658 14.0727L38.513 14.2473C38.4546 15.0909 38.4035 15.9054 38.3596 16.6909C38.3304 17.4618 38.3158 18.08 38.3158 18.5454C38.3158 19.3018 38.6153 19.8109 39.2142 20.0727C39.8131 20.3491 40.6676 20.4873 41.7777 20.4873C43.0047 20.4873 44.1002 20.3927 45.0643 20.2036C46.043 20.0145 46.8172 19.7818 47.3869 19.5054L47.343 18.4582C47.3284 18.1527 47.4672 17.9127 47.7593 17.7382C48.0661 17.5491 48.402 17.4545 48.7672 17.4545C49.0448 17.4545 49.2712 17.5127 49.4465 17.6291C49.6217 17.7454 49.7094 17.92 49.7094 18.1527V19.1782C49.7094 20.2691 49.3296 21.1709 48.57 21.8836C47.8251 22.6109 46.8391 23.1418 45.6121 23.4764C44.3851 23.8109 43.0558 23.9854 41.6243 24ZM42.7199 18.48L42.939 15.1636H50.7173L50.9364 15.3818V18.4582L50.7173 18.6764H48.4824L42.7199 18.48Z" fill="white"/>
<path d="M57.5183 15.1636L57.7374 15.3818V18.4582L57.5183 18.6764H50.726V15.1636H57.5183Z" fill="white"/>
<path d="M72.6054 18.7418C71.9919 18.7418 71.32 18.6618 70.5896 18.5018C69.8592 18.3418 69.1873 18.0873 68.5738 17.7382C67.9749 17.3745 67.5732 16.9236 67.3687 16.3854C67.2957 16.1673 67.2592 15.9491 67.2592 15.7309C67.2592 15.12 67.4637 14.56 67.8727 14.0509C69.0704 14.7636 70.743 15.2218 72.8902 15.4254L72.693 9.27272L75.4319 9.14182V15.5345C75.4319 16.6109 75.2054 17.4182 74.7526 17.9564C74.3144 18.48 73.5987 18.7418 72.6054 18.7418ZM57.5089 15.1636H57.9909C58.4292 15.1636 58.8966 15.1418 59.3932 15.0982C59.8899 15.04 60.2697 14.9818 60.5326 14.9236V9.99272H62.9647V13.0255C62.9647 14.5527 62.731 15.7309 62.2635 16.56C61.8107 17.3745 61.1899 17.9345 60.4011 18.24C59.6269 18.5309 58.6629 18.6764 57.5089 18.6764V15.1636ZM64.7833 18.7418C63.5709 18.7418 62.6287 18.4582 61.9568 17.8909C61.2995 17.3091 60.9708 16.5018 60.9708 15.4691V10.1018H62.9647V14.0291C62.9647 14.4509 63.1034 14.7564 63.381 14.9454C63.6731 15.1345 64.1917 15.2291 64.9366 15.2291L64.7833 18.7418ZM64.7833 18.7418C64.5934 18.7418 64.4108 18.5164 64.2355 18.0654C64.0602 17.6 63.9726 17.12 63.9726 16.6255C63.9726 16.2182 64.0456 15.8836 64.1917 15.6218C64.3523 15.36 64.6007 15.2291 64.9366 15.2291C65.7985 15.2291 66.5069 15.1418 67.062 14.9673V9.99272H69.4941V14.9018C69.4941 16.1818 69.0412 17.1418 68.1356 17.7818C67.23 18.4218 66.1125 18.7418 64.7833 18.7418Z" fill="white"/>
<path d="M73.3218 20.6618C74.4611 20.4291 75.4398 20.1382 76.2578 19.7891C77.0904 19.4545 77.7112 19.1127 78.1202 18.7636C78.5438 18.4291 78.7629 18.1382 78.7775 17.8909L78.7994 16.9527C78.7994 16.7782 78.8944 16.5382 79.0843 16.2327C79.2742 15.9127 79.5006 15.6364 79.7635 15.4036C80.0264 15.1564 80.2601 15.0327 80.4646 15.0327C80.8152 15.0327 80.9905 15.4036 80.9905 16.1454C80.9905 17.2945 80.859 18.3345 80.5961 19.2654C80.3332 20.2109 79.6686 21.12 78.6022 21.9927C77.5505 22.88 75.9437 23.5273 73.7819 23.9345L73.3218 20.6618ZM78.0764 9.92727L80.7495 9.70909C80.9102 12.5891 80.9905 14.7345 80.9905 16.1454C80.9905 16.9891 80.8956 17.6873 80.7057 18.24C80.5304 18.7927 80.304 19.1927 80.0264 19.44C79.7635 19.7018 79.5006 19.8327 79.2376 19.8327C79.0624 19.8327 78.9163 19.7745 78.7994 19.6582C78.6826 19.5564 78.6168 19.4182 78.6022 19.2436L78.0764 9.92727Z" fill="white"/>
<path d="M88.3241 18.6764C87.3162 18.6764 86.4836 18.5964 85.8263 18.4364C85.1689 18.2618 84.6212 17.8982 84.183 17.3454C83.7447 16.7782 83.511 15.9345 83.4818 14.8145L83.1751 4.08L85.8482 3.84V14.2473C85.8482 14.5091 85.9066 14.7055 86.0235 14.8364C86.1549 14.9527 86.3886 15.04 86.7246 15.0982C87.0606 15.1418 87.5937 15.1636 88.3241 15.1636L88.5432 15.3818V18.4582L88.3241 18.6764Z" fill="white"/>
<path d="M95.1131 15.1636L95.3322 15.3818V18.4582L95.1131 18.6764H88.3208V15.1636H95.1131Z" fill="white"/>
<path d="M102.269 12.9164C102.269 11.5927 102.21 10.6036 102.093 9.94909C101.991 9.28 101.75 8.77818 101.37 8.44363C100.99 8.10909 100.377 7.94182 99.5297 7.94182H98.7847L98.5437 10.8436C98.8066 10.8727 99.2521 10.8873 99.8803 10.8873C101.18 10.8873 102.21 10.7782 102.97 10.56L103.386 13.5055C102.948 13.6364 102.356 13.76 101.611 13.8764C100.866 13.9927 100.238 14.0509 99.7269 14.0509C98.7482 14.0509 97.9302 13.8327 97.2729 13.3964C96.6302 12.96 96.3088 12.2254 96.3088 11.1927C96.3088 11.0764 96.3234 10.8873 96.3526 10.6255L96.988 4.90909H99.464C100.852 4.90909 101.911 5.23636 102.641 5.89091C103.386 6.54545 103.883 7.42545 104.131 8.53091C104.379 9.63636 104.503 11.0036 104.503 12.6327L102.269 15.7964V12.9164ZM95.1037 15.1636C96.8274 15.1636 98.2808 15.1273 99.464 15.0545C100.662 14.9818 101.611 14.8291 102.312 14.5964V13.8764C102.312 13.6291 102.407 13.3455 102.597 13.0255C102.802 12.7055 103.043 12.4364 103.32 12.2182C103.598 11.9855 103.839 11.8691 104.043 11.8691C104.35 11.8691 104.503 12.1236 104.503 12.6327C104.503 13.7673 104.416 14.6909 104.24 15.4036C104.08 16.1018 103.766 16.6764 103.298 17.1273C102.846 17.5782 102.174 17.9054 101.283 18.1091C99.8072 18.4873 97.7476 18.6764 95.1037 18.6764V15.1636ZM100.603 0V2.96727H97.7549V0H100.603Z" fill="white"/>
<path d="M116.215 24C114.36 24 112.965 23.6145 112.03 22.8436C111.095 22.0727 110.628 20.8364 110.628 19.1345C110.628 18.48 110.737 16.7927 110.956 14.0727L113.104 14.2473C113.045 15.0909 112.994 15.9054 112.95 16.6909C112.921 17.4618 112.906 18.08 112.906 18.5454C112.906 19.3018 113.206 19.8109 113.805 20.0727C114.404 20.3491 115.258 20.4873 116.368 20.4873C117.595 20.4873 118.691 20.3927 119.655 20.2036C120.634 20.0145 121.408 19.7818 121.977 19.5054L121.934 18.4582C121.919 18.1527 122.058 17.9127 122.35 17.7382C122.657 17.5491 122.993 17.4545 123.358 17.4545C123.635 17.4545 123.862 17.5127 124.037 17.6291C124.212 17.7454 124.3 17.92 124.3 18.1527V19.1782C124.3 20.2691 123.92 21.1709 123.161 21.8836C122.416 22.6109 121.43 23.1418 120.203 23.4764C118.976 23.8109 117.646 23.9854 116.215 24ZM117.31 18.48L117.529 15.1636H125.308L125.527 15.3818V18.4582L125.308 18.6764H123.073L117.31 18.48Z" fill="white"/>
<path d="M132.109 15.1636L132.328 15.3818V18.4582L132.109 18.6764H125.317V15.1636H132.109Z" fill="white"/>
<path d="M139.264 12.9164C139.264 11.5927 139.206 10.6036 139.089 9.94909C138.987 9.28 138.746 8.77818 138.366 8.44363C137.986 8.10909 137.373 7.94182 136.525 7.94182H135.78L135.539 10.8436C135.802 10.8727 136.248 10.8873 136.876 10.8873C138.176 10.8873 139.206 10.7782 139.965 10.56L140.382 13.5055C139.943 13.6364 139.352 13.76 138.607 13.8764C137.862 13.9927 137.234 14.0509 136.723 14.0509C135.744 14.0509 134.926 13.8327 134.269 13.3964C133.626 12.96 133.305 12.2254 133.305 11.1927C133.305 11.0764 133.319 10.8873 133.348 10.6255L133.984 4.90909H136.46C137.847 4.90909 138.906 5.23636 139.637 5.89091C140.382 6.54545 140.878 7.42545 141.127 8.53091C141.375 9.63636 141.499 11.0036 141.499 12.6327L139.264 15.7964V12.9164ZM132.099 15.1636C133.823 15.1636 135.276 15.1273 136.46 15.0545C137.657 14.9818 138.607 14.8291 139.308 14.5964V13.8764C139.308 13.6291 139.403 13.3455 139.593 13.0255C139.797 12.7055 140.038 12.4364 140.316 12.2182C140.593 11.9855 140.834 11.8691 141.039 11.8691C141.346 11.8691 141.499 12.1236 141.499 12.6327C141.499 13.7673 141.411 14.6909 141.236 15.4036C141.076 16.1018 140.761 16.6764 140.294 17.1273C139.841 17.5782 139.169 17.9054 138.278 18.1091C136.803 18.4873 134.743 18.6764 132.099 18.6764V15.1636ZM137.599 0V2.96727H134.751V0H137.599Z" fill="white"/>
<path d="M143.9 4.08L146.573 3.84V18.6764L144.141 18.8509L143.9 4.08Z" fill="white"/>
<path d="M144.703 20.6618C145.842 20.4291 146.821 20.1382 147.639 19.7891C148.471 19.4545 149.092 19.1127 149.501 18.7636C149.925 18.4291 150.144 18.1382 150.158 17.8909L150.18 16.9527C150.18 16.7782 150.275 16.5382 150.465 16.2327C150.655 15.9127 150.882 15.6364 151.144 15.4036C151.407 15.1564 151.641 15.0327 151.846 15.0327C152.196 15.0327 152.371 15.4036 152.371 16.1454C152.371 17.2945 152.24 18.3345 151.977 19.2654C151.714 20.2109 151.049 21.12 149.983 21.9927C148.931 22.88 147.325 23.5273 145.163 23.9345L144.703 20.6618ZM149.479 10.2327L152.152 10.0145C152.298 12.6327 152.371 14.6764 152.371 16.1454C152.371 16.9891 152.276 17.6873 152.087 18.24C151.911 18.7927 151.685 19.1927 151.407 19.44C151.144 19.7018 150.882 19.8327 150.619 19.8327C150.443 19.8327 150.297 19.7745 150.18 19.6582C150.064 19.5564 149.998 19.4182 149.983 19.2436L149.479 10.2327ZM154.847 18.6764C154.161 18.6764 153.598 18.6327 153.16 18.5454C152.722 18.4436 152.335 18.2327 151.999 17.9127C151.678 17.5782 151.437 17.0764 151.276 16.4073C151.159 15.9273 151.079 15.4473 151.035 14.9673C151.006 14.4873 150.984 13.84 150.969 13.0255C150.955 12.8654 150.947 12.6327 150.947 12.3273L152.174 10.4291L152.306 13.3091C152.335 13.8764 152.415 14.2909 152.547 14.5527C152.693 14.8 152.927 14.9673 153.248 15.0545C153.584 15.1273 154.117 15.1636 154.847 15.1636L155.066 15.3818V18.4582L154.847 18.6764Z" fill="white"/>
<path d="M161.637 15.1636L161.856 15.3818V18.4582L161.637 18.6764H154.845V15.1636H161.637Z" fill="white"/>
<path d="M169.033 18.7418C168.551 18.7418 168.164 18.5891 167.872 18.2836C167.595 17.9636 167.456 17.5927 167.456 17.1709C167.456 16.6473 167.653 16.1964 168.047 15.8182C168.456 15.4254 169.033 15.2291 169.778 15.2291C173.678 15.2291 176.417 14.9454 177.995 14.3782V13.7018C177.995 13.2364 177.761 12.9091 177.294 12.72L174.336 11.5418L167.149 18.1745L165.637 16.5164L173.24 9.46909C173.854 8.90182 174.555 8.61818 175.344 8.61818C175.709 8.61818 176.11 8.69091 176.549 8.83636C177.381 9.17091 177.878 9.38181 178.039 9.46909C178.725 9.83272 179.251 10.2764 179.616 10.8C179.996 11.3236 180.186 11.9782 180.186 12.7636V14.4654C180.186 15.2654 179.908 15.9782 179.353 16.6036C178.798 17.2145 177.695 17.7236 176.045 18.1309C174.409 18.5382 172.072 18.7418 169.033 18.7418ZM161.628 15.1636C162.621 15.1636 163.417 15.0836 164.016 14.9236V10.1236H166.448V14.1164C166.448 15.7164 165.995 16.88 165.089 17.6073C164.184 18.32 163.03 18.6764 161.628 18.6764V15.1636ZM169.033 18.7418C167.733 18.7418 166.623 18.5091 165.703 18.0436C164.797 17.5636 164.344 16.8582 164.344 15.9273V12.1745H166.448V15.0109C166.974 15.0691 167.448 15.1127 167.872 15.1418C168.296 15.1709 168.946 15.1854 169.822 15.1854C170.187 15.2873 170.458 15.4618 170.633 15.7091C170.808 15.9418 170.896 16.2182 170.896 16.5382C170.896 16.8727 170.808 17.2145 170.633 17.5636C170.458 17.9127 170.224 18.1964 169.932 18.4145C169.654 18.6327 169.355 18.7418 169.033 18.7418Z" fill="white"/>
<path opacity="0.5" d="M203.657 23.3457L188.557 12.1333C188.557 12.1333 188.236 11.913 188.236 11.4978L188.236 2.03496C188.236 2.03496 188.239 1.15382 189.193 1.25366C189.193 1.25366 189.39 1.30278 189.521 1.39946L206.227 13.8052C206.227 13.8052 208.168 15.1888 208.154 17.6214C208.154 17.6214 208.184 19.9844 206.227 21.4376L203.657 23.3457Z" fill="url(#paint0_linear_37_8056)"/>
<path opacity="0.5" d="M203.659 23.3532L188.559 34.564C188.559 34.564 188.238 34.7843 188.238 35.1995L188.238 44.6639C188.238 44.6639 188.241 45.5451 189.195 45.4452C189.195 45.4452 189.392 45.3961 189.523 45.2994L206.229 32.8952C206.229 32.8952 208.17 31.5117 208.156 29.0791C208.156 29.0791 208.186 26.7161 206.229 25.2629L203.659 23.3548L203.659 23.3532Z" fill="url(#paint1_linear_37_8056)"/>
<path d="M188.569 1.11436C188.218 1.29185 188 1.64368 188 2.03512L188 11.4979C188 11.8212 188.156 12.1319 188.417 12.3252L199.661 20.6755L199.724 20.723L200.007 20.3411L188.7 11.9433C188.56 11.8387 188.474 11.6723 188.474 11.4979L188.474 2.03512C188.474 1.82117 188.59 1.63575 188.782 1.53908C188.98 1.43924 189.205 1.45826 189.382 1.58979L206.087 13.9956C207.25 14.8593 207.919 16.181 207.919 17.6216C207.919 19.0622 207.252 20.3823 206.087 21.2476L188.417 34.3681C188.156 34.5615 188 34.8721 188 35.1954L188 44.6582C188 45.048 188.218 45.4015 188.569 45.5774C188.925 45.758 189.344 45.7216 189.663 45.4854L205.79 33.5092L205.508 33.1272L189.382 45.1019C189.205 45.2335 188.98 45.2525 188.782 45.1526C188.59 45.056 188.474 44.8705 188.474 44.6566L188.474 35.1938C188.474 35.0195 188.558 34.8531 188.7 34.7485L206.368 21.6279C207.654 20.6723 208.392 19.2127 208.392 17.62C208.392 16.0273 207.654 14.5677 206.368 13.612L189.663 1.20786C189.344 0.970139 188.923 0.935276 188.567 1.11436L188.569 1.11436Z" fill="white"/>
<path opacity="0.5" d="M218.343 23.3532L233.442 34.5656C233.442 34.5656 233.763 34.7859 233.763 35.2011L233.763 44.6639C233.763 44.6639 233.76 45.5451 232.807 45.4452C232.807 45.4452 232.609 45.3961 232.478 45.2994L215.773 32.8937C215.773 32.8937 213.832 31.5101 213.846 29.0775C213.846 29.0775 213.816 26.7145 215.773 25.2613L218.343 23.3532Z" fill="url(#paint2_linear_37_8056)"/>
<path opacity="0.5" d="M218.343 23.3457L233.442 12.1333C233.442 12.1333 233.763 11.913 233.763 11.4978L233.763 2.03496C233.763 2.03496 233.76 1.15382 232.807 1.25366C232.807 1.25366 232.609 1.30278 232.478 1.39946L215.773 13.8052C215.773 13.8052 213.832 15.1888 213.846 17.6214C213.846 17.6214 213.816 19.9844 215.773 21.4376L218.343 23.3457Z" fill="url(#paint3_linear_37_8056)"/>
<path d="M232.337 1.20706L216.212 13.1818L216.493 13.5637L232.62 1.58899C232.797 1.45745 233.021 1.43844 233.219 1.53828C233.412 1.63495 233.527 1.82037 233.527 2.03432L233.527 11.4971C233.527 11.6715 233.443 11.8379 233.303 11.9425L215.635 25.063C214.35 26.0186 213.611 27.4782 213.611 29.0709C213.611 30.6636 214.35 32.1232 215.635 33.0789L232.337 45.4847C232.656 45.7224 233.075 45.7572 233.431 45.5782C233.782 45.4007 234 45.0488 234 44.6574L234 35.1946C234 34.8713 233.843 34.5607 233.583 34.3673L222.275 25.9711L221.994 26.353L233.301 34.7492C233.442 34.8538 233.527 35.0202 233.527 35.1946L233.527 44.6574C233.527 44.8713 233.412 45.0568 233.219 45.1534C233.021 45.2533 232.797 45.2343 232.62 45.1027L215.914 32.6969C214.751 31.8332 214.082 30.5115 214.082 29.0709C214.082 27.6303 214.749 26.3102 215.914 25.4449L233.583 12.3244C233.843 12.1295 234 11.8204 234 11.4971L234 2.03432C234 1.64288 233.782 1.29105 233.431 1.11356C233.075 0.934471 232.656 0.969338 232.337 1.20706Z" fill="white"/>
<defs>
<linearGradient id="paint0_linear_37_8056" x1="206.637" y1="20.5533" x2="187.911" y2="5.90257" gradientUnits="userSpaceOnUse">
<stop stop-color="#232323" stop-opacity="0"/>
<stop offset="1" stop-color="white" stop-opacity="0.7"/>
</linearGradient>
<linearGradient id="paint1_linear_37_8056" x1="207.036" y1="26.1393" x2="187.916" y2="40.39" gradientUnits="userSpaceOnUse">
<stop stop-color="#232323" stop-opacity="0"/>
<stop offset="1" stop-color="white" stop-opacity="0.7"/>
</linearGradient>
<linearGradient id="paint2_linear_37_8056" x1="214.966" y1="26.5383" x2="234.089" y2="41.1872" gradientUnits="userSpaceOnUse">
<stop stop-color="#232323" stop-opacity="0"/>
<stop offset="1" stop-color="white" stop-opacity="0.7"/>
</linearGradient>
<linearGradient id="paint3_linear_37_8056" x1="214.173" y1="19.3562" x2="234.075" y2="6.30221" gradientUnits="userSpaceOnUse">
<stop stop-color="#232323" stop-opacity="0"/>
<stop offset="1" stop-color="white" stop-opacity="0.7"/>
</linearGradient>
</defs>
</svg>
