<svg width="251" height="46" viewBox="0 0 251 46" fill="none" xmlns="http://www.w3.org/2000/svg">
<path opacity="0.5" d="M236.015 23.9591L250.466 35.019C250.466 35.019 250.773 35.2363 250.773 35.6459L250.773 44.98C250.773 44.98 250.77 45.8492 249.858 45.7507C249.858 45.7507 249.669 45.7023 249.543 45.6069L233.554 33.3698C233.554 33.3698 231.697 32.0051 231.71 29.6055C231.71 29.6055 231.681 27.2747 233.554 25.8412L236.015 23.9591Z" fill="url(#paint0_linear_37_8259)"/>
<path opacity="0.5" d="M236.015 23.9511L250.466 12.8927C250.466 12.8927 250.773 12.6754 250.773 12.2659L250.773 2.93019C250.773 2.93019 250.77 2.06103 249.858 2.15951C249.858 2.15951 249.669 2.20797 249.543 2.30333L233.554 14.5388C233.554 14.5388 231.697 15.9035 231.71 18.3031C231.71 18.3031 231.681 20.6339 233.554 22.0674L236.015 23.9496L236.015 23.9511Z" fill="url(#paint1_linear_37_8259)"/>
<path d="M250.455 45.8882C250.791 45.7131 251 45.3661 251 44.9799L251 35.6458C251 35.3269 250.85 35.0205 250.601 34.8298L239.839 26.5931L239.778 26.5462L239.508 26.9229L250.33 35.2066C250.464 35.3097 250.546 35.4739 250.546 35.6458L250.546 44.9799C250.546 45.191 250.436 45.3739 250.251 45.4692C250.062 45.5677 249.847 45.549 249.678 45.4192L233.689 33.1821C232.575 32.3302 231.935 31.0264 231.935 29.6054C231.935 28.1845 232.574 26.8823 233.689 26.0288L250.601 13.0867C250.85 12.8959 251 12.5896 251 12.2707L251 2.93653C251 2.55197 250.791 2.20337 250.455 2.02985C250.115 1.85164 249.714 1.88759 249.408 2.12052L233.973 13.9339L234.242 14.3107L249.678 2.49882C249.847 2.36907 250.062 2.35031 250.251 2.4488C250.436 2.54415 250.546 2.72705 250.546 2.93809L250.546 12.2722C250.546 12.4442 250.466 12.6083 250.33 12.7115L233.419 25.6536C232.189 26.5962 231.483 28.036 231.483 29.607C231.483 31.1781 232.189 32.6178 233.419 33.5605L249.408 45.796C249.714 46.0304 250.116 46.0648 250.457 45.8882L250.455 45.8882Z" fill="#54B990"/>
<path opacity="0.5" d="M221.957 23.9511L207.506 12.8912C207.506 12.8912 207.198 12.6739 207.198 12.2643L207.198 2.93019C207.198 2.93019 207.201 2.06103 208.114 2.15951C208.114 2.15951 208.303 2.20797 208.428 2.30333L224.417 14.5404C224.417 14.5404 226.275 15.9051 226.262 18.3047C226.262 18.3047 226.29 20.6355 224.417 22.069L221.957 23.9511Z" fill="url(#paint2_linear_37_8259)"/>
<path opacity="0.5" d="M221.957 23.9591L207.506 35.019C207.506 35.019 207.198 35.2363 207.198 35.6459L207.198 44.98C207.198 44.98 207.201 45.8492 208.114 45.7507C208.114 45.7507 208.303 45.7023 208.428 45.6069L224.417 33.3698C224.417 33.3698 226.275 32.0051 226.262 29.6055C226.262 29.6055 226.29 27.2747 224.417 25.8412L221.957 23.9591Z" fill="url(#paint3_linear_37_8259)"/>
<path d="M208.564 45.796L223.998 33.9841L223.728 33.6074L208.293 45.4193C208.124 45.549 207.909 45.5678 207.72 45.4693C207.535 45.3739 207.425 45.191 207.425 44.98L207.425 35.6459C207.425 35.4739 207.505 35.3098 207.639 35.2066L224.55 22.2645C225.78 21.3219 226.486 19.8821 226.486 18.3111C226.486 16.74 225.78 15.3003 224.55 14.3576L208.564 2.12057C208.258 1.88608 207.857 1.85169 207.517 2.02834C207.181 2.20342 206.972 2.55046 206.972 2.93658L206.972 12.2707C206.972 12.5896 207.122 12.896 207.372 13.0867L218.194 21.3688L218.463 20.992L207.641 12.71C207.506 12.6068 207.425 12.4427 207.425 12.2707L207.425 2.93658C207.425 2.72554 207.535 2.54264 207.72 2.44728C207.909 2.3488 208.124 2.36756 208.293 2.49731L224.282 14.7344C225.395 15.5863 226.035 16.8901 226.035 18.3111C226.035 19.7321 225.397 21.0342 224.282 21.8878L207.372 34.8299C207.122 35.0221 206.972 35.327 206.972 35.6459L206.972 44.98C206.972 45.3661 207.181 45.7132 207.517 45.8882C207.857 46.0649 208.258 46.0305 208.564 45.796Z" fill="#54B990"/>
<path d="M66.347 23C64.5671 23 63.2287 22.6306 62.3317 21.8918C61.4348 21.153 60.9863 19.9682 60.9863 18.3373C60.9863 17.71 61.0914 16.093 61.3017 13.4864L63.3618 13.6536C63.3058 14.4621 63.2567 15.2427 63.2147 15.9955C63.1866 16.7342 63.1726 17.3267 63.1726 17.7727C63.1726 18.4976 63.4599 18.9855 64.0345 19.2364C64.6091 19.5012 65.429 19.6336 66.4941 19.6336C67.6713 19.6336 68.7224 19.543 69.6474 19.3618C70.5864 19.1806 71.3292 18.9576 71.8758 18.6927L71.8337 17.6891C71.8197 17.3964 71.9528 17.1664 72.2331 16.9991C72.5274 16.8179 72.8498 16.7273 73.2001 16.7273C73.4664 16.7273 73.6836 16.783 73.8518 16.8945C74.02 17.0061 74.1041 17.1733 74.1041 17.3964V18.3791C74.1041 19.4245 73.7397 20.2888 73.0109 20.9718C72.2962 21.6688 71.3502 22.1776 70.173 22.4982C68.9957 22.8188 67.7204 22.9861 66.347 23ZM67.3981 17.71L67.6083 14.5318H75.0711L75.2813 14.7409V17.6891L75.0711 17.8982H72.9269L67.3981 17.71Z" fill="black"/>
<path d="M81.5963 14.5318L81.8065 14.7409V17.6891L81.5963 17.8982H75.0795V14.5318H81.5963Z" fill="black"/>
<path d="M96.0715 17.9609C95.4829 17.9609 94.8382 17.8842 94.1374 17.7309C93.4367 17.5776 92.792 17.3336 92.2034 16.9991C91.6288 16.6506 91.2434 16.2185 91.0472 15.7027C90.9771 15.4936 90.9421 15.2845 90.9421 15.0755C90.9421 14.49 91.1383 13.9533 91.5307 13.4655C92.6799 14.1485 94.2846 14.5876 96.3448 14.7827L96.1556 8.88636L98.7833 8.76091V14.8873C98.7833 15.9188 98.5661 16.6924 98.1316 17.2082C97.7112 17.71 97.0245 17.9609 96.0715 17.9609ZM81.5873 14.5318H82.0498C82.4702 14.5318 82.9187 14.5109 83.3952 14.4691C83.8717 14.4133 84.2361 14.3576 84.4883 14.3018V9.57636H86.8218V12.4827C86.8218 13.9464 86.5975 15.0755 86.1491 15.87C85.7146 16.6506 85.119 17.1873 84.3622 17.48C83.6194 17.7588 82.6944 17.8982 81.5873 17.8982V14.5318ZM88.5666 17.9609C87.4034 17.9609 86.4994 17.6891 85.8548 17.1455C85.2241 16.5879 84.9088 15.8142 84.9088 14.8245V9.68091H86.8218V13.4445C86.8218 13.8488 86.9549 14.1415 87.2212 14.3227C87.5015 14.5039 87.999 14.5945 88.7138 14.5945L88.5666 17.9609ZM88.5666 17.9609C88.3844 17.9609 88.2092 17.7448 88.041 17.3127C87.8729 16.8667 87.7888 16.4067 87.7888 15.9327C87.7888 15.5424 87.8589 15.2218 87.999 14.9709C88.1532 14.72 88.3914 14.5945 88.7138 14.5945C89.5406 14.5945 90.2203 14.5109 90.7529 14.3436V9.57636H93.0863V14.2809C93.0863 15.5076 92.6519 16.4276 91.783 17.0409C90.9141 17.6542 89.8419 17.9609 88.5666 17.9609Z" fill="black"/>
<path d="M96.7588 19.8009C97.8519 19.5779 98.7909 19.2991 99.5758 18.9645C100.375 18.6439 100.97 18.3164 101.363 17.9818C101.769 17.6612 101.979 17.3824 101.993 17.1455L102.014 16.2464C102.014 16.0791 102.105 15.8491 102.288 15.5564C102.47 15.2497 102.687 14.9848 102.939 14.7618C103.192 14.5248 103.416 14.4064 103.612 14.4064C103.948 14.4064 104.117 14.7618 104.117 15.4727C104.117 16.5739 103.99 17.5706 103.738 18.4627C103.486 19.3688 102.848 20.24 101.825 21.0764C100.816 21.9267 99.2744 22.547 97.2003 22.9373L96.7588 19.8009ZM101.321 9.51363L103.885 9.30454C104.039 12.0645 104.117 14.1206 104.117 15.4727C104.117 16.2812 104.025 16.9503 103.843 17.48C103.675 18.0097 103.458 18.393 103.192 18.63C102.939 18.8809 102.687 19.0064 102.435 19.0064C102.267 19.0064 102.126 18.9506 102.014 18.8391C101.902 18.7415 101.839 18.6091 101.825 18.4418L101.321 9.51363Z" fill="black"/>
<path d="M111.153 17.8982C110.186 17.8982 109.387 17.8215 108.756 17.6682C108.125 17.5009 107.6 17.1524 107.179 16.6227C106.759 16.0791 106.535 15.2706 106.507 14.1973L106.212 3.91L108.777 3.68V13.6536C108.777 13.9045 108.833 14.0927 108.945 14.2182C109.071 14.3297 109.296 14.4133 109.618 14.4691C109.94 14.5109 110.452 14.5318 111.153 14.5318L111.363 14.7409V17.6891L111.153 17.8982Z" fill="black"/>
<path d="M117.666 14.5318L117.877 14.7409V17.6891L117.666 17.8982H111.15V14.5318H117.666Z" fill="black"/>
<path d="M124.532 12.3782C124.532 11.1097 124.475 10.1618 124.363 9.53454C124.265 8.89333 124.034 8.41242 123.67 8.09182C123.305 7.77121 122.717 7.61091 121.904 7.61091H121.189L120.958 10.3918C121.21 10.4197 121.638 10.4336 122.24 10.4336C123.487 10.4336 124.475 10.3291 125.204 10.12L125.604 12.9427C125.183 13.0682 124.616 13.1867 123.901 13.2982C123.186 13.4097 122.584 13.4655 122.093 13.4655C121.154 13.4655 120.369 13.2564 119.739 12.8382C119.122 12.42 118.814 11.7161 118.814 10.7264C118.814 10.6148 118.828 10.4336 118.856 10.1827L119.465 4.70455H121.841C123.172 4.70455 124.188 5.01818 124.889 5.64545C125.604 6.27273 126.08 7.11606 126.318 8.17545C126.557 9.23485 126.676 10.5451 126.676 12.1064L124.532 15.1382V12.3782ZM117.657 14.5318C119.311 14.5318 120.706 14.497 121.841 14.4273C122.99 14.3576 123.901 14.2112 124.574 13.9882V13.2982C124.574 13.0612 124.665 12.7894 124.847 12.4827C125.043 12.1761 125.274 11.9182 125.541 11.7091C125.807 11.4861 126.038 11.3745 126.234 11.3745C126.529 11.3745 126.676 11.6185 126.676 12.1064C126.676 13.1936 126.592 14.0788 126.424 14.7618C126.269 15.4309 125.968 15.9815 125.52 16.4136C125.085 16.8458 124.44 17.1594 123.586 17.3545C122.17 17.717 120.194 17.8982 117.657 17.8982V14.5318ZM122.934 0V2.84364H120.201V0H122.934Z" fill="black"/>
<path d="M137.912 23C136.132 23 134.794 22.6306 133.897 21.8918C133 21.153 132.552 19.9682 132.552 18.3373C132.552 17.71 132.657 16.093 132.867 13.4864L134.927 13.6536C134.871 14.4621 134.822 15.2427 134.78 15.9955C134.752 16.7342 134.738 17.3267 134.738 17.7727C134.738 18.4976 135.025 18.9855 135.6 19.2364C136.174 19.5012 136.994 19.6336 138.059 19.6336C139.237 19.6336 140.288 19.543 141.213 19.3618C142.152 19.1806 142.894 18.9576 143.441 18.6927L143.399 17.6891C143.385 17.3964 143.518 17.1664 143.798 16.9991C144.093 16.8179 144.415 16.7273 144.765 16.7273C145.032 16.7273 145.249 16.783 145.417 16.8945C145.585 17.0061 145.669 17.1733 145.669 17.3964V18.3791C145.669 19.4245 145.305 20.2888 144.576 20.9718C143.861 21.6688 142.916 22.1776 141.738 22.4982C140.561 22.8188 139.286 22.9861 137.912 23ZM138.963 17.71L139.174 14.5318H146.636L146.847 14.7409V17.6891L146.636 17.8982H144.492L138.963 17.71Z" fill="black"/>
<path d="M153.162 14.5318L153.372 14.7409V17.6891L153.162 17.8982H146.645V14.5318H153.162Z" fill="black"/>
<path d="M160.027 12.3782C160.027 11.1097 159.971 10.1618 159.859 9.53454C159.761 8.89333 159.529 8.41242 159.165 8.09182C158.801 7.77121 158.212 7.61091 157.399 7.61091H156.684L156.453 10.3918C156.705 10.4197 157.133 10.4336 157.735 10.4336C158.983 10.4336 159.971 10.3291 160.7 10.12L161.099 12.9427C160.678 13.0682 160.111 13.1867 159.396 13.2982C158.681 13.4097 158.079 13.4655 157.588 13.4655C156.649 13.4655 155.864 13.2564 155.234 12.8382C154.617 12.42 154.309 11.7161 154.309 10.7264C154.309 10.6148 154.323 10.4336 154.351 10.1827L154.96 4.70455H157.336C158.667 4.70455 159.683 5.01818 160.384 5.64545C161.099 6.27273 161.575 7.11606 161.814 8.17545C162.052 9.23485 162.171 10.5451 162.171 12.1064L160.027 15.1382V12.3782ZM153.153 14.5318C154.806 14.5318 156.201 14.497 157.336 14.4273C158.485 14.3576 159.396 14.2112 160.069 13.9882V13.2982C160.069 13.0612 160.16 12.7894 160.342 12.4827C160.538 12.1761 160.77 11.9182 161.036 11.7091C161.302 11.4861 161.533 11.3745 161.73 11.3745C162.024 11.3745 162.171 11.6185 162.171 12.1064C162.171 13.1936 162.087 14.0788 161.919 14.7618C161.765 15.4309 161.463 15.9815 161.015 16.4136C160.58 16.8458 159.936 17.1594 159.081 17.3545C157.665 17.717 155.689 17.8982 153.153 17.8982V14.5318ZM158.429 0V2.84364H155.696V0H158.429Z" fill="black"/>
<path d="M164.475 3.91L167.039 3.68V17.8982L164.706 18.0655L164.475 3.91Z" fill="black"/>
<path d="M165.245 19.8009C166.338 19.5779 167.277 19.2991 168.062 18.9645C168.86 18.6439 169.456 18.3164 169.849 17.9818C170.255 17.6612 170.465 17.3824 170.479 17.1455L170.5 16.2464C170.5 16.0791 170.591 15.8491 170.773 15.5564C170.956 15.2497 171.173 14.9848 171.425 14.7618C171.677 14.5248 171.902 14.4064 172.098 14.4064C172.434 14.4064 172.602 14.7618 172.602 15.4727C172.602 16.5739 172.476 17.5706 172.224 18.4627C171.972 19.3688 171.334 20.24 170.311 21.0764C169.302 21.9267 167.76 22.547 165.686 22.9373L165.245 19.8009ZM169.827 9.80636L172.392 9.59727C172.532 12.1064 172.602 14.0648 172.602 15.4727C172.602 16.2812 172.511 16.9503 172.329 17.48C172.161 18.0097 171.944 18.393 171.677 18.63C171.425 18.8809 171.173 19.0064 170.921 19.0064C170.752 19.0064 170.612 18.9506 170.5 18.8391C170.388 18.7415 170.325 18.6091 170.311 18.4418L169.827 9.80636ZM174.978 17.8982C174.319 17.8982 173.78 17.8564 173.359 17.7727C172.939 17.6751 172.567 17.473 172.245 17.1664C171.937 16.8458 171.705 16.3648 171.551 15.7236C171.439 15.2636 171.362 14.8036 171.32 14.3436C171.292 13.8836 171.271 13.2633 171.257 12.4827C171.243 12.3294 171.236 12.1064 171.236 11.8136L172.413 9.99454L172.539 12.7545C172.567 13.2982 172.644 13.6955 172.771 13.9464C172.911 14.1833 173.135 14.3436 173.443 14.4273C173.766 14.497 174.277 14.5318 174.978 14.5318L175.188 14.7409V17.6891L174.978 17.8982Z" fill="black"/>
<path d="M181.492 14.5318L181.702 14.7409V17.6891L181.492 17.8982H174.975V14.5318H181.492Z" fill="black"/>
<path d="M188.589 17.9609C188.126 17.9609 187.755 17.8145 187.474 17.5218C187.208 17.2151 187.075 16.8597 187.075 16.4555C187.075 15.9536 187.264 15.5215 187.643 15.1591C188.035 14.7827 188.589 14.5945 189.303 14.5945C193.045 14.5945 195.673 14.3227 197.187 13.7791V13.1309C197.187 12.6848 196.962 12.3712 196.514 12.19L193.676 11.0609L186.781 17.4173L185.33 15.8282L192.625 9.07454C193.213 8.53091 193.886 8.25909 194.643 8.25909C194.993 8.25909 195.379 8.32879 195.799 8.46818C196.598 8.78879 197.074 8.99091 197.229 9.07454C197.887 9.42303 198.392 9.84818 198.742 10.35C199.107 10.8518 199.289 11.4791 199.289 12.2318V13.8627C199.289 14.6294 199.022 15.3124 198.49 15.9118C197.957 16.4973 196.899 16.9851 195.316 17.3755C193.746 17.7658 191.504 17.9609 188.589 17.9609ZM181.483 14.5318C182.436 14.5318 183.2 14.4551 183.774 14.3018V9.70182H186.108V13.5282C186.108 15.0615 185.673 16.1767 184.805 16.8736C183.936 17.5567 182.828 17.8982 181.483 17.8982V14.5318ZM188.589 17.9609C187.341 17.9609 186.276 17.7379 185.393 17.2918C184.524 16.8318 184.09 16.1558 184.09 15.2636V11.6673H186.108V14.3855C186.612 14.4412 187.068 14.483 187.474 14.5109C187.881 14.5388 188.504 14.5527 189.345 14.5527C189.696 14.6503 189.955 14.8176 190.123 15.0545C190.291 15.2776 190.375 15.5424 190.375 15.8491C190.375 16.1697 190.291 16.4973 190.123 16.8318C189.955 17.1664 189.731 17.4382 189.45 17.6473C189.184 17.8564 188.897 17.9609 188.589 17.9609Z" fill="black"/>
<path d="M3.0657 43.0292C1.0219 43.0292 0 42.1481 0 40.3861C0 40.082 0.0627483 39.0981 0.188245 37.4344L1.06224 37.5015C0.990527 38.8432 0.954671 39.7242 0.954671 40.1446C0.954671 40.7528 1.15188 41.1642 1.5463 41.3789C1.94968 41.5936 2.48752 41.7009 3.15983 41.7009C4.2624 41.7009 5.18122 41.4818 5.91627 41.0435L5.75492 32.6581L6.88439 32.5239V40.6007C6.88439 41.1195 6.70511 41.5623 6.34655 41.929C5.98798 42.2957 5.51737 42.5685 4.93471 42.7474C4.35205 42.9352 3.72904 43.0292 3.0657 43.0292Z" fill="#7C085E"/>
<path d="M11.9303 41.2447C11.3118 41.2447 10.7964 41.1956 10.384 41.0972C9.98066 40.9898 9.65796 40.7841 9.41593 40.48C9.1739 40.1759 9.04392 39.7331 9.02599 39.1517L8.85119 32.6581L9.98066 32.5239V38.9773C9.98066 39.2099 10.0344 39.3932 10.142 39.5274C10.2496 39.6616 10.4423 39.76 10.7202 39.8226C10.9981 39.8852 11.4015 39.9165 11.9303 39.9165L12.0648 40.0507V41.1106L11.9303 41.2447Z" fill="#7C085E"/>
<path d="M11.9249 39.9165H12.2207C12.6689 39.9165 13.0588 39.8762 13.3905 39.7957C13.7222 39.7152 13.9463 39.6213 14.0628 39.514L13.9418 36.1464L15.0444 36.0793V38.3602C15.0444 39.4514 14.7799 40.2072 14.251 40.6276C13.7222 41.039 12.9468 41.2447 11.9249 41.2447V39.9165ZM16.7789 41.2447C16.3755 41.2447 16.008 41.2179 15.6763 41.1642C15.3447 41.1016 15.0399 40.9451 14.762 40.6947C14.4841 40.4442 14.3452 40.0596 14.3452 39.5408V36.4818H15.0444V38.6687C15.0444 39.1696 15.1878 39.5051 15.4746 39.675C15.7705 39.836 16.2052 39.9165 16.7789 39.9165L16.9134 40.0507V41.1106L16.7789 41.2447ZM14.3586 33.5436V34.7779H12.7585V33.5436H14.3586ZM15.9453 33.5436V34.7779H14.3586V33.5436H15.9453Z" fill="#7C085E"/>
<path d="M16.7833 39.9165H17.0791C17.5273 39.9165 17.9173 39.8762 18.2489 39.7957C18.5806 39.7152 18.8047 39.6213 18.9212 39.514L18.8002 36.1464L19.9028 36.0793V38.3602C19.9028 39.4514 19.6384 40.2072 19.1095 40.6276C18.5806 41.039 17.8052 41.2447 16.7833 41.2447V39.9165ZM21.6374 41.2447C21.234 41.2447 20.8664 41.2179 20.5348 41.1642C20.2031 41.1016 19.8983 40.9451 19.6204 40.6947C19.3426 40.4442 19.2036 40.0596 19.2036 39.5408V36.4818H19.9028V38.6687C19.9028 39.1696 20.0462 39.5051 20.3331 39.675C20.6289 39.836 21.0637 39.9165 21.6374 39.9165L21.7718 40.0507V41.1106L21.6374 41.2447ZM19.2171 42.3315V43.5658H17.617V42.3315H19.2171ZM20.8037 42.3315V43.5658H19.2171V42.3315H20.8037Z" fill="#7C085E"/>
<path d="M29.7766 41.2447C29.2926 41.2447 28.9116 41.1732 28.6337 41.0301C28.3558 40.878 28.1497 40.6991 28.0152 40.4934C27.8807 40.2787 27.7059 39.9344 27.4908 39.4603C27.3743 39.1741 27.2667 38.9281 27.1681 38.7224C27.1502 38.6687 27.1412 38.624 27.1412 38.5882C27.1412 38.463 27.1905 38.3378 27.2891 38.2126C27.3967 38.0784 27.4953 38.0113 27.5849 38.0113C27.6298 38.0113 27.6656 38.0337 27.6925 38.0784C27.8807 38.472 28.0062 38.7448 28.069 38.8968C28.2572 39.2904 28.4769 39.5587 28.7278 39.7018C28.9878 39.8449 29.3688 39.9165 29.8708 39.9165H31.054L31.1885 40.0507V41.1106L31.054 41.2447H29.7766ZM21.6418 39.9165H23.457C24.1293 39.9165 24.6268 39.8762 24.9495 39.7957C25.2812 39.7152 25.5635 39.5766 25.7966 39.3798C26.0386 39.1741 26.4331 38.7806 26.9799 38.1992L27.827 37.2868L29.4405 37.9845C29.1985 37.9398 29.0192 37.9174 28.9026 37.9174C28.7234 37.9174 28.571 37.9532 28.4455 38.0247C28.3289 38.0963 28.1945 38.2126 28.0421 38.3736C27.2174 39.2949 26.5899 39.9433 26.1596 40.319C25.7383 40.6857 25.3081 40.9317 24.8688 41.0569C24.4296 41.1821 23.8021 41.2447 22.9864 41.2447H21.6418V39.9165ZM22.4754 38.1187L22.6368 37.1527C22.7175 36.7144 22.8833 36.3745 23.1343 36.133C23.3942 35.8915 23.7483 35.7707 24.1965 35.7707C24.4027 35.7707 24.5999 35.7886 24.7881 35.8244L29.7497 36.8038L29.4405 37.9845C29.3957 37.9666 29.2702 37.9264 29.064 37.8637C29.0102 37.8459 28.9385 37.8235 28.8489 37.7967C28.7592 37.7698 28.6696 37.7475 28.5799 37.7296C28.553 37.7296 28.5127 37.743 28.4589 37.7698C28.4051 37.7877 28.3648 37.7922 28.3379 37.7832C27.6835 37.6491 26.4375 37.4076 24.5999 37.0587L23.5108 36.8441L23.2687 38.2528L22.4754 38.1187ZM24.4654 42.3181H25.7697V43.6732H24.4654V42.3181Z" fill="#7C085E"/>
<path d="M31.0566 39.9165C31.4242 39.9165 31.8276 39.8897 32.2668 39.836C32.706 39.7823 33.0153 39.6974 33.1946 39.5811L33.0467 35.9183L34.1896 35.8512V38.9639C34.1896 39.7957 33.9251 40.3861 33.3963 40.7349C32.8674 41.0748 32.0875 41.2447 31.0566 41.2447V39.9165ZM32.6433 42.3315V43.5658H31.0432V42.3315H32.6433ZM34.2299 42.3315V43.5658H32.6433V42.3315H34.2299Z" fill="#7C085E"/>
<path d="M41.3809 37.7698C41.5781 38.2797 41.6767 38.7358 41.6767 39.1383C41.6767 40.6052 40.3366 41.3387 37.6564 41.3387C37.0558 41.3387 36.6255 41.2045 36.3655 40.9362C36.1056 40.6589 35.9756 40.2161 35.9756 39.6079V37.7967L36.8899 37.8235V39.997L37.5219 40.0104C39.1982 40.0104 40.3187 39.836 40.8834 39.4872L39.2833 35.5158L40.2246 34.8047L41.3809 37.7698Z" fill="#7C085E"/>
<path d="M48.9096 43.2707C47.8249 43.2707 47.0137 43.0605 46.4758 42.6401C45.9469 42.2197 45.6825 41.5399 45.6825 40.6007C45.6825 40.3682 45.7004 39.9433 45.7363 39.3262C45.7811 38.7001 45.8259 38.15 45.8707 37.6759L46.7447 37.743C46.673 39.2725 46.6372 40.1491 46.6372 40.3727C46.6372 40.9898 46.8389 41.4057 47.2422 41.6204C47.6546 41.8351 48.2417 41.9424 49.0037 41.9424C49.8284 41.9424 50.5455 41.8574 51.1551 41.6875C51.7736 41.5176 52.289 41.2984 52.7014 41.0301L52.661 40.0909C52.661 39.9746 52.7327 39.9165 52.8762 39.9165C53.0375 39.9165 53.2033 39.9881 53.3737 40.1312C53.544 40.2743 53.6291 40.4532 53.6291 40.6678C53.6291 41.2403 53.3961 41.7233 52.9299 42.1168C52.4638 42.5104 51.8677 42.8011 51.1416 42.9889C50.4245 43.1767 49.6805 43.2707 48.9096 43.2707ZM52.7014 40.1982L50.3214 39.9567C49.3443 39.8494 48.8558 39.353 48.8558 38.4675C48.8558 38.1992 48.8916 37.9085 48.9633 37.5954C49.044 37.2734 49.1516 36.9022 49.286 36.4818C49.4564 35.9541 49.7118 35.5471 50.0525 35.2609C50.4021 34.9747 50.8189 34.8316 51.303 34.8316C51.6346 34.8316 52.2352 34.9613 53.1047 35.2207L52.7955 36.1598C52.168 36.0346 51.6839 35.972 51.3433 35.972C50.7517 35.972 50.3483 36.2582 50.1332 36.8307C50.0256 37.1079 49.9225 37.4344 49.8239 37.8101C49.7343 38.1768 49.6715 38.472 49.6356 38.6956L52.3114 38.9907C52.7775 39.0534 53.1137 39.2233 53.3199 39.5006C53.526 39.7779 53.6291 40.1669 53.6291 40.6678L52.7014 40.1982Z" fill="#7C085E"/>
<path d="M58.532 41.2447C57.9135 41.2447 57.3981 41.1956 56.9857 41.0972C56.5823 40.9898 56.2596 40.7841 56.0176 40.48C55.7756 40.1759 55.6456 39.7331 55.6277 39.1517L55.4529 32.6581L56.5823 32.5239V38.9773C56.5823 39.2099 56.6361 39.3932 56.7437 39.5274C56.8512 39.6616 57.044 39.76 57.3219 39.8226C57.5997 39.8852 58.0031 39.9165 58.532 39.9165L58.6665 40.0507V41.1106L58.532 41.2447Z" fill="#7C085E"/>
<path d="M58.5265 41.2447V39.9165C60.7227 39.9165 62.157 39.9031 62.8293 39.8762V37.1661L60.8393 36.9782L60.4897 38.7761C60.4807 38.8208 60.4762 38.8834 60.4762 38.9639C60.4762 39.2144 60.5569 39.4335 60.7183 39.6213C60.8886 39.8002 61.0947 39.8897 61.3368 39.8897L62.8293 39.8762L61.6326 40.9227C61.2561 40.9317 60.9065 40.8557 60.5838 40.6947C60.2701 40.5337 60.0191 40.3101 59.8308 40.0238C59.6515 39.7287 59.5619 39.4022 59.5619 39.0444C59.5619 38.9102 59.5753 38.7716 59.6022 38.6285L59.9384 37.0185C60.0101 36.6697 60.1759 36.3834 60.4359 36.1598C60.6958 35.9362 61.0051 35.8423 61.3637 35.8781L63.6898 36.0793V39.7421C63.6898 40.2161 63.4837 40.5605 63.0713 40.7752C62.659 40.9898 62.1301 41.124 61.4847 41.1777C60.8482 41.2224 59.9339 41.2447 58.7417 41.2447H58.5265ZM65.5454 41.285C65.1241 41.285 64.7162 41.2403 64.3218 41.1508C63.9274 41.0614 63.5912 40.9541 63.3133 40.8288C63.0444 40.7036 62.8786 40.5918 62.8158 40.4934C62.789 40.4487 62.7755 40.3995 62.7755 40.3458C62.7755 40.2296 62.8203 40.0864 62.91 39.9165C62.9996 39.7376 63.0892 39.6034 63.1789 39.514C63.3671 39.6661 63.8019 39.8136 64.4832 39.9567C65.1644 40.0909 65.7067 40.1535 66.1101 40.1446V39.0847C66.1101 38.3691 65.8009 37.8324 65.1824 37.4747L62.2915 35.7842L62.9234 34.7242L65.4647 36.2403C66.4687 36.8486 66.9707 37.6759 66.9707 38.7224V39.675C66.9707 40.2474 66.8631 40.6589 66.648 40.9093C66.4418 41.1598 66.0743 41.285 65.5454 41.285Z" fill="#7C085E"/>
<path d="M66.0761 42.895C66.8291 42.7429 67.47 42.5462 67.9989 42.3047C68.5367 42.0632 68.9401 41.8127 69.209 41.5533C69.4869 41.2939 69.6303 41.0569 69.6393 40.8422L69.6527 40.2653C69.6527 40.2296 69.6931 40.1491 69.7738 40.0238C69.8634 39.8897 69.962 39.7689 70.0696 39.6616C70.1771 39.5542 70.2668 39.5006 70.3385 39.5006C70.4371 39.5006 70.4864 39.6124 70.4864 39.836C70.4864 40.5068 70.4102 41.0972 70.2578 41.607C70.1144 42.1258 69.7379 42.6222 69.1284 43.0962C68.5188 43.5792 67.5821 43.937 66.3181 44.1696L66.0761 42.895ZM69.2494 36.4282L70.3654 36.3342C70.4461 38.0605 70.4864 39.2278 70.4864 39.836C70.4864 40.2922 70.4371 40.6589 70.3385 40.9362C70.2489 41.2045 70.1368 41.3923 70.0023 41.4997C69.8768 41.6159 69.7648 41.6741 69.6662 41.6741C69.6124 41.6741 69.5766 41.6607 69.5586 41.6338L69.2494 36.4282ZM70.4864 33.6777V35.0328H69.1821V33.6777H70.4864Z" fill="#7C085E"/>
<path d="M70.6982 42.895C71.4512 42.7429 72.0921 42.5462 72.621 42.3047C73.1588 42.0632 73.5622 41.8127 73.8311 41.5533C74.109 41.2939 74.2524 41.0569 74.2614 40.8422L74.2748 40.2653C74.2748 40.2296 74.3152 40.1491 74.3959 40.0238C74.4855 39.8897 74.5841 39.7689 74.6917 39.6616C74.7992 39.5542 74.8889 39.5006 74.9606 39.5006C75.0592 39.5006 75.1085 39.6124 75.1085 39.836C75.1085 40.5068 75.0323 41.0972 74.8799 41.607C74.7365 42.1258 74.36 42.6222 73.7504 43.0962C73.1409 43.5792 72.2041 43.937 70.9402 44.1696L70.6982 42.895ZM73.8715 36.4282L74.9875 36.3342C75.0682 38.0605 75.1085 39.2278 75.1085 39.836C75.1085 40.2922 75.0592 40.6589 74.9606 40.9362C74.8709 41.2045 74.7589 41.3923 74.6244 41.4997C74.4989 41.6159 74.3869 41.6741 74.2883 41.6741C74.2345 41.6741 74.1986 41.6607 74.1807 41.6338L73.8715 36.4282Z" fill="#7C085E"/>
<path d="M76.9876 32.6581L78.1171 32.5239V41.2447L77.1355 41.3521L76.9876 32.6581Z" fill="#7C085E"/>
<path d="M85.6499 44.3574C84.5652 44.3574 83.754 44.1472 83.2162 43.7268C82.6873 43.3154 82.4228 42.6401 82.4228 41.7009C82.4228 41.4594 82.4408 41.0301 82.4766 40.4129C82.5214 39.7868 82.5663 39.2412 82.6111 38.7761L83.4851 38.8432C83.4134 40.3727 83.3775 41.2447 83.3775 41.4594C83.3775 42.0766 83.5792 42.4925 83.9826 42.7072C84.3949 42.9218 84.9821 43.0292 85.744 43.0292C87.2321 43.0292 88.4646 42.734 89.4417 42.1437L89.4014 41.1777C89.4014 41.0972 89.4731 41.0256 89.6165 40.963C89.7599 40.8914 89.9033 40.8557 90.0468 40.8557C90.1454 40.8557 90.2216 40.8736 90.2754 40.9093C90.3381 40.9451 90.3695 41.0032 90.3695 41.0837V41.7546C90.3695 42.327 90.1364 42.81 89.6703 43.2036C89.2041 43.5971 88.608 43.8878 87.8819 44.0757C87.1648 44.2635 86.4208 44.3574 85.6499 44.3574ZM86.5642 41.124L86.6718 39.9165H91.2166L91.351 40.0507V41.1106L91.2166 41.2447H89.872L86.5642 41.124Z" fill="#7C085E"/>
<path d="M91.2226 39.9165C91.5901 39.9165 91.9935 39.8897 92.4327 39.836C92.8719 39.7823 93.1812 39.6974 93.3605 39.5811L93.2126 35.9183L94.3555 35.8512V38.9639C94.3555 39.7957 94.0911 40.3861 93.5622 40.7349C93.0333 41.0748 92.2534 41.2447 91.2226 41.2447V39.9165ZM93.2798 33.2082V34.5632H91.9755V33.2082H93.2798Z" fill="#7C085E"/>
<path d="M96.3163 34.3352L97.4458 34.201V41.2447L96.4642 41.3521L96.3163 34.3352ZM98.8711 32.6044C98.2346 32.7833 97.5578 32.8727 96.8407 32.8727C96.258 32.8727 95.7202 32.8191 95.2272 32.7117L94.8103 32.6044L95.2003 31.6518C95.7112 31.8039 96.2536 31.8799 96.8273 31.8799C97.4368 31.8799 98.1405 31.7949 98.9383 31.625L98.8711 32.6044ZM95.4558 32.3495L95.6843 33.6241L95.0389 33.7985L94.8103 32.6044L95.4558 32.3495Z" fill="#7C085E"/>
<path d="M105.626 41.3789C104.165 41.3789 103.138 41.1553 102.547 40.7081C101.964 40.2609 101.673 39.6213 101.673 38.7895C101.673 38.5122 101.686 38.1544 101.713 37.7162C101.74 37.2689 101.771 36.8843 101.807 36.5623L102.668 36.6294C102.614 37.5149 102.587 38.1187 102.587 38.4407C102.587 38.8521 102.686 39.1741 102.883 39.4067C103.08 39.6303 103.425 39.7957 103.918 39.9031C104.42 40.0015 105.133 40.0507 106.056 40.0507C106.89 40.0507 107.715 40.0149 108.53 39.9433C109.346 39.8628 110.041 39.7376 110.614 39.5677L110.48 36.1196L111.596 36.0391V38.8566C111.596 39.2949 111.529 39.6526 111.394 39.9299C111.269 40.1982 111.027 40.4353 110.668 40.641C110.121 40.9272 109.382 41.124 108.45 41.2313C107.526 41.3297 106.585 41.3789 105.626 41.3789ZM106.486 35.1804V36.4147H104.886V35.1804H106.486ZM108.073 35.1804V36.4147H106.486V35.1804H108.073Z" fill="#7C085E"/>
<path d="M113.826 39.9165H115.399C116.376 39.9165 117.026 39.8271 117.349 39.6482L117.201 32.6581L118.33 32.5239V38.6956C118.33 39.6258 118.097 40.2832 117.631 40.6678C117.174 41.0524 116.43 41.2447 115.399 41.2447H113.718L113.826 39.9165ZM113.57 33.4228L114.7 33.2887V41.1106L113.718 41.2447L113.57 33.4228ZM119.93 41.2447C119.097 41.2447 118.505 41.1016 118.155 40.8154C117.815 40.5292 117.645 40.0417 117.645 39.353V36.4684H118.33V38.3065C118.33 38.7448 118.375 39.0802 118.465 39.3127C118.554 39.5364 118.711 39.6929 118.935 39.7823C119.168 39.8718 119.5 39.9165 119.93 39.9165L120.065 40.0507V41.1106L119.93 41.2447Z" fill="#7C085E"/>
<path d="M125.13 41.285C124.844 41.285 124.454 41.2358 123.961 41.1374C123.468 41.0301 123.019 40.887 122.616 40.7081C122.213 40.5202 121.984 40.3101 121.93 40.0775C121.903 39.9702 121.89 39.8494 121.89 39.7152C121.89 39.5095 121.921 39.2993 121.984 39.0847C122.361 39.3262 122.894 39.5364 123.584 39.7152C124.283 39.8852 125.014 39.9881 125.776 40.0238V37.1124H124.028C123.481 37.1124 123.136 37.4344 122.992 38.0784L122.67 39.514C122.544 40.0864 122.271 40.5202 121.85 40.8154C121.428 41.1016 120.94 41.2447 120.384 41.2447H119.927V39.9165H120.37C120.819 39.9165 121.146 39.8673 121.352 39.7689C121.567 39.6705 121.715 39.5229 121.796 39.3262C121.885 39.1294 121.98 38.7984 122.078 38.3333L122.28 37.4076C122.396 36.8888 122.647 36.4997 123.033 36.2403C123.418 35.9809 123.907 35.8512 124.498 35.8512H126.636V39.8494C126.636 40.3771 126.506 40.7483 126.246 40.963C125.986 41.1777 125.614 41.285 125.13 41.285Z" fill="#7C085E"/>
<path d="M131.698 41.2447C131.079 41.2447 130.564 41.1956 130.151 41.0972C129.748 40.9898 129.425 40.7841 129.183 40.48C128.941 40.1759 128.811 39.7331 128.793 39.1517L128.618 32.6581L129.748 32.5239V38.9773C129.748 39.2099 129.802 39.3932 129.909 39.5274C130.017 39.6616 130.21 39.76 130.487 39.8226C130.765 39.8852 131.169 39.9165 131.698 39.9165L131.832 40.0507V41.1106L131.698 41.2447Z" fill="#7C085E"/>
<path d="M132.647 36.0391C133.418 35.9139 134.103 35.8155 134.704 35.7439C135.314 35.6634 135.887 35.6232 136.425 35.6232C137.429 35.6232 138.079 35.7842 138.375 36.1062C138.68 36.4192 138.832 36.777 138.832 37.1795C138.832 37.3405 138.697 37.421 138.429 37.421C138.348 37.421 138.272 37.4121 138.2 37.3942C138.128 37.3763 138.083 37.3584 138.066 37.3405C137.967 37.1974 137.761 37.0811 137.447 36.9917C137.133 36.9022 136.748 36.8575 136.291 36.8575C135.833 36.8575 135.363 36.8843 134.879 36.938C134.404 36.9827 133.834 37.0498 133.171 37.1392L132.808 37.1795L132.647 36.0391ZM131.692 39.9165C132.956 39.9165 133.888 39.9031 134.489 39.8762C135.098 39.8494 135.605 39.8002 136.008 39.7287C136.17 39.7018 136.331 39.7421 136.492 39.8494C136.663 39.9567 136.748 40.0775 136.748 40.2117C136.748 40.3369 136.676 40.4442 136.533 40.5337C136.138 40.8109 135.475 40.9988 134.543 41.0972C133.61 41.1956 132.66 41.2447 131.692 41.2447V39.9165ZM134.422 39.9031C134.305 39.8584 134.18 39.6124 134.045 39.1652C133.92 38.709 133.808 38.2171 133.709 37.6893C133.61 37.1616 133.561 36.8262 133.561 36.6831C133.561 36.5668 133.592 36.4818 133.655 36.4282C133.727 36.3745 133.812 36.3477 133.911 36.3477C134.027 36.3477 134.135 36.3834 134.233 36.455C134.341 36.5176 134.395 36.5936 134.395 36.6831C134.395 36.7367 134.48 37.1482 134.65 37.9174C134.821 38.6777 134.946 39.1875 135.027 39.4469C134.973 39.5721 134.888 39.6929 134.771 39.8092C134.655 39.9254 134.538 39.9567 134.422 39.9031ZM139.719 41.2447C138.922 41.2447 138.222 41.1911 137.622 41.0837C137.021 40.9764 136.497 40.8422 136.049 40.6812C135.609 40.5202 135.085 40.2966 134.475 40.0104C134.449 39.9836 134.435 39.9389 134.435 39.8762C134.435 39.76 134.466 39.6303 134.529 39.4872C134.601 39.3441 134.659 39.277 134.704 39.2859C135.574 39.5542 136.358 39.7287 137.057 39.8092C137.756 39.8807 138.644 39.9165 139.719 39.9165L139.854 40.0507V41.1106L139.719 41.2447ZM136.896 40.641C136.842 40.6589 136.761 40.6321 136.654 40.5605C136.546 40.4889 136.452 40.3995 136.371 40.2922C136.291 40.1759 136.25 40.073 136.25 39.9836C136.25 39.9299 136.273 39.8807 136.318 39.836C136.461 39.7555 136.663 39.5453 136.923 39.2054C137.192 38.8566 137.438 38.4854 137.662 38.0918C137.895 37.6893 138.034 37.3718 138.079 37.1392C138.088 37.0766 138.133 37.0274 138.213 36.9917C138.294 36.9559 138.384 36.938 138.482 36.938C138.581 36.938 138.662 36.9604 138.724 37.0051C138.796 37.0409 138.832 37.099 138.832 37.1795C138.832 37.4836 138.733 37.8637 138.536 38.3199C138.348 38.7671 138.101 39.2054 137.797 39.6347C137.501 40.0641 137.2 40.3995 136.896 40.641Z" fill="#7C085E"/>
<path d="M144.919 41.285C144.632 41.285 144.242 41.2358 143.749 41.1374C143.256 41.0301 142.808 40.887 142.404 40.7081C142.001 40.5202 141.772 40.3101 141.719 40.0775C141.692 39.9702 141.678 39.8494 141.678 39.7152C141.678 39.5095 141.71 39.2993 141.772 39.0847C142.149 39.3262 142.682 39.5364 143.372 39.7152C144.072 39.8852 144.802 39.9881 145.564 40.0238V37.1124H143.816C143.269 37.1124 142.924 37.4344 142.781 38.0784L142.458 39.514C142.333 40.0864 142.059 40.5202 141.638 40.8154C141.217 41.1016 140.728 41.2447 140.172 41.2447H139.715V39.9165H140.159C140.607 39.9165 140.934 39.8673 141.14 39.7689C141.355 39.6705 141.503 39.5229 141.584 39.3262C141.674 39.1294 141.768 38.7984 141.866 38.3333L142.068 37.4076C142.185 36.8888 142.436 36.4997 142.821 36.2403C143.207 35.9809 143.695 35.8512 144.287 35.8512H146.425V39.8494C146.425 40.3771 146.295 40.7483 146.035 40.963C145.775 41.1777 145.403 41.285 144.919 41.285Z" fill="#7C085E"/>
<path d="M153.717 43.0292C151.673 43.0292 150.651 42.1481 150.651 40.3861C150.651 40.082 150.714 39.0981 150.839 37.4344L151.713 37.5015C151.642 38.8432 151.606 39.7242 151.606 40.1446C151.606 40.7528 151.803 41.1642 152.197 41.3789C152.601 41.5936 153.139 41.7009 153.811 41.7009C154.447 41.7009 155.048 41.6338 155.613 41.4997C156.186 41.3655 156.639 41.2045 156.971 41.0167L156.823 36.5489L157.939 36.4282V40.5202C157.939 41.0569 157.742 41.5131 157.347 41.8887C156.953 42.2734 156.433 42.5596 155.788 42.7474C155.151 42.9352 154.461 43.0292 153.717 43.0292ZM159.673 41.2447C159.288 41.2447 158.943 41.2179 158.638 41.1642C158.342 41.1016 158.073 40.9451 157.831 40.6947C157.589 40.4442 157.468 40.0596 157.468 39.5408V37.0319L157.939 37.0185V38.6687C157.939 39.1696 158.082 39.5051 158.369 39.675C158.665 39.836 159.1 39.9165 159.673 39.9165L159.808 40.0507V41.1106L159.673 41.2447ZM154.846 36.0525V37.4076H153.542V36.0525H154.846Z" fill="#7C085E"/>
<path d="M159.674 39.9165C160.042 39.9165 160.445 39.8897 160.884 39.836C161.323 39.7823 161.633 39.6974 161.812 39.5811L161.664 35.9183L162.807 35.8512V38.9639C162.807 39.7957 162.543 40.3861 162.014 40.7349C161.485 41.0748 160.705 41.2447 159.674 41.2447V39.9165ZM161.261 42.3315V43.5658H159.661V42.3315H161.261ZM162.847 42.3315V43.5658H161.261V42.3315H162.847Z" fill="#7C085E"/>
<path d="M165.023 39.9165H166.597C167.574 39.9165 168.223 39.8271 168.546 39.6482L168.398 32.6581L169.528 32.5239V38.6956C169.528 39.6258 169.295 40.2832 168.829 40.6678C168.371 41.0524 167.627 41.2447 166.597 41.2447H164.916L165.023 39.9165ZM164.768 33.4228L165.897 33.2887V41.1106L164.916 41.2447L164.768 33.4228ZM171.128 41.2447C170.294 41.2447 169.703 41.1016 169.353 40.8154C169.012 40.5292 168.842 40.0417 168.842 39.353V36.4684H169.528V38.3065C169.528 38.7448 169.573 39.0802 169.662 39.3127C169.752 39.5364 169.909 39.6929 170.133 39.7823C170.366 39.8718 170.698 39.9165 171.128 39.9165L171.262 40.0507V41.1106L171.128 41.2447Z" fill="#7C085E"/>
<path d="M171.124 39.9165C171.492 39.9165 171.895 39.8897 172.334 39.836C172.774 39.7823 173.083 39.6974 173.262 39.5811L173.114 35.9183L174.257 35.8512V38.9639C174.257 39.7957 173.993 40.3861 173.464 40.7349C172.935 41.0748 172.155 41.2447 171.124 41.2447V39.9165ZM173.182 33.2082V34.5632H171.877V33.2082H173.182Z" fill="#7C085E"/>
<path d="M176.218 34.3352L177.347 34.201V41.2447L176.366 41.3521L176.218 34.3352ZM178.773 32.6044C178.136 32.7833 177.46 32.8727 176.742 32.8727C176.16 32.8727 175.622 32.8191 175.129 32.7117L174.712 32.6044L175.102 31.6518C175.613 31.8039 176.155 31.8799 176.729 31.8799C177.339 31.8799 178.042 31.7949 178.84 31.625L178.773 32.6044ZM175.357 32.3495L175.586 33.6241L174.941 33.7985L174.712 32.6044L175.357 32.3495Z" fill="#7C085E"/>
<path d="M179.948 42.895C180.7 42.7429 181.341 42.5462 181.87 42.3047C182.408 42.0632 182.812 41.8127 183.08 41.5533C183.358 41.2939 183.502 41.0569 183.511 40.8422L183.524 40.2653C183.524 40.2296 183.565 40.1491 183.645 40.0238C183.735 39.8897 183.833 39.7689 183.941 39.6616C184.049 39.5542 184.138 39.5006 184.21 39.5006C184.309 39.5006 184.358 39.6124 184.358 39.836C184.358 40.5068 184.282 41.0972 184.129 41.607C183.986 42.1258 183.609 42.6222 183 43.0962C182.39 43.5792 181.453 43.937 180.19 44.1696L179.948 42.895ZM183.121 36.4282L184.237 36.3342C184.317 38.0605 184.358 39.2278 184.358 39.836C184.358 40.2922 184.309 40.6589 184.21 40.9362C184.12 41.2045 184.008 41.3923 183.874 41.4997C183.748 41.6159 183.636 41.6741 183.538 41.6741C183.484 41.6741 183.448 41.6607 183.43 41.6338L183.121 36.4282Z" fill="#7C085E"/>
<path d="M186.237 32.6581L187.366 32.5239V41.2447L186.385 41.3521L186.237 32.6581Z" fill="#7C085E"/>
<path d="M186.592 42.895C187.345 42.7429 187.986 42.5462 188.515 42.3047C189.052 42.0632 189.456 41.8127 189.725 41.5533C190.003 41.2939 190.146 41.0569 190.155 40.8422L190.168 40.2653C190.168 40.2296 190.209 40.1491 190.289 40.0238C190.379 39.8897 190.478 39.7689 190.585 39.6616C190.693 39.5542 190.782 39.5006 190.854 39.5006C190.953 39.5006 191.002 39.6124 191.002 39.836C191.002 40.5068 190.926 41.0972 190.773 41.607C190.63 42.1258 190.254 42.6222 189.644 43.0962C189.034 43.5792 188.098 43.937 186.834 44.1696L186.592 42.895ZM189.765 36.4282L190.881 36.3342C190.962 38.0605 191.002 39.2278 191.002 39.836C191.002 40.2922 190.953 40.6589 190.854 40.9362C190.765 41.2045 190.652 41.3923 190.518 41.4997C190.393 41.6159 190.28 41.6741 190.182 41.6741C190.128 41.6741 190.092 41.6607 190.074 41.6338L189.765 36.4282ZM191.002 33.6777V35.0328H189.698V33.6777H191.002Z" fill="#7C085E"/>
<path d="M195.96 41.2447C195.342 41.2447 194.826 41.1956 194.414 41.0972C194.011 40.9898 193.688 40.7841 193.446 40.48C193.204 40.1759 193.074 39.7331 193.056 39.1517L192.881 32.6581L194.011 32.5239V38.9773C194.011 39.2099 194.064 39.3932 194.172 39.5274C194.28 39.6616 194.472 39.76 194.75 39.8226C195.028 39.8852 195.431 39.9165 195.96 39.9165L196.095 40.0507V41.1106L195.96 41.2447Z" fill="#7C085E"/>
<path d="M195.955 39.9165C196.322 39.9165 196.726 39.8897 197.165 39.836C197.604 39.7823 197.913 39.6974 198.093 39.5811L197.945 35.9183L199.088 35.8512V38.9639C199.088 39.7957 198.823 40.3861 198.294 40.7349C197.766 41.0748 196.986 41.2447 195.955 41.2447V39.9165ZM195.955 42.2912H197.259V43.6463H195.955V42.2912Z" fill="#7C085E"/>
<defs>
<linearGradient id="paint0_linear_37_8259" x1="233.162" y1="26.7135" x2="251.492" y2="40.6286" gradientUnits="userSpaceOnUse">
<stop stop-color="white" stop-opacity="0"/>
<stop offset="1" stop-color="#54B990" stop-opacity="0.5"/>
</linearGradient>
<linearGradient id="paint1_linear_37_8259" x1="232.782" y1="21.2029" x2="251.472" y2="7.68599" gradientUnits="userSpaceOnUse">
<stop stop-color="white" stop-opacity="0"/>
<stop offset="1" stop-color="#54B990" stop-opacity="0.5"/>
</linearGradient>
<linearGradient id="paint2_linear_37_8259" x1="225.19" y1="20.8093" x2="206.482" y2="6.90419" gradientUnits="userSpaceOnUse">
<stop stop-color="white" stop-opacity="0"/>
<stop offset="1" stop-color="#54B990" stop-opacity="0.5"/>
</linearGradient>
<linearGradient id="paint3_linear_37_8259" x1="225.949" y1="27.8943" x2="206.559" y2="40.2346" gradientUnits="userSpaceOnUse">
<stop stop-color="white" stop-opacity="0"/>
<stop offset="1" stop-color="#54B990" stop-opacity="0.5"/>
</linearGradient>
</defs>
</svg>
